<?xml version="1.0" encoding="iso-8859-1"?>
<!-- Generator: Adobe Illustrator 19.0.0, SVG Export Plug-In . SVG Version: 6.00 Build 0)  -->
<svg version="1.1" id="Layer_1" xmlns="http://www.w3.org/2000/svg" xmlns:xlink="http://www.w3.org/1999/xlink" x="0px" y="0px"
	 viewBox="0 0 512 512" style="enable-background:new 0 0 512 512;" xml:space="preserve">
<g>
	<path style="fill:#283182;" d="M505.757,317.187H485.28v-46.566c0-11.48-9.341-20.823-20.832-20.823
		c-12.019,0.011-18.009,0.017-21.032,0.026v-9.628c0-13.018-11.452-23.611-25.525-23.611c-14.076,0-25.529,10.593-25.529,23.611
		v25.331c0,3.448,2.794,6.245,6.241,6.245c3.448,0,6.242-2.796,6.242-6.245v-25.331c0-6.135,5.854-11.126,13.046-11.126
		c7.19,0,13.042,4.991,13.042,11.126v89.321c0,3.448,2.792,6.243,6.241,6.243c3.448,0,6.242-2.794,6.242-6.243v-67.21
		c6.258-0.011,21.041-0.022,21.037-0.022c4.601,0,8.342,3.74,8.342,8.336v130.639c0,4.596-3.742,8.34-8.342,8.34l-21.037-0.007
		v-50.113c0-3.448-2.794-6.242-6.242-6.242c-3.448,0-6.241,2.794-6.241,6.242v72.207c0,6.133-5.852,11.123-13.042,11.123
		c-7.192,0-13.046-4.991-13.046-11.123V295.49c0-3.448-2.794-6.243-6.242-6.243c-3.446,0-6.241,2.794-6.241,6.243v21.697h-37.361
		c-3.26-12.274-14.438-21.36-27.726-21.36h-144.79c-13.288,0-24.465,9.087-27.726,21.36h-36.657v-76.991
		c0-13.018-11.451-23.611-25.529-23.611c-5.88,0-11.618,1.89-16.156,5.323c-0.006,0.002-0.009,0.006-0.015,0.009
		c-5.949,4.501-9.359,11.163-9.359,18.279v9.628c-3.023-0.009-9.015-0.015-21.034-0.026c-11.486,0-20.827,9.343-20.827,20.823
		v46.566H6.243c-3.448,0-6.243,2.794-6.243,6.243v25.02c0,3.448,2.794,6.24,6.243,6.24h18.939v46.57
		c0,11.482,9.341,20.823,20.827,20.823h21.034v9.605c0,13.018,11.452,23.609,25.529,23.609c14.078,0,25.529-10.59,25.529-23.609
		v-11.352c0-3.448-2.796-6.245-6.245-6.245c-3.448,0-6.24,2.796-6.24,6.245v11.352c0,6.133-5.852,11.123-13.044,11.123
		c-7.192,0-13.044-4.991-13.044-11.123V297.059c0-3.448-2.796-6.242-6.245-6.242c-3.446,0-6.24,2.794-6.24,6.242V409.6H46.009
		c-4.6,0-8.342-3.744-8.342-8.34V270.621c0-4.596,3.742-8.336,8.336-8.336c0,0,14.781,0.011,21.041,0.022v4.786
		c0,3.448,2.794,6.245,6.24,6.245c3.449,0,6.245-2.796,6.245-6.245v-26.897c0-3.17,1.606-6.2,4.406-8.319
		c0.004-0.006,0.006-0.009,0.011-0.011c2.384-1.804,5.451-2.796,8.627-2.796c7.192,0,13.044,4.991,13.044,11.126V390.37
		c0,3.448,2.792,6.245,6.24,6.245c3.448,0,6.245-2.796,6.245-6.245V354.69h36.655c3.258,12.278,14.438,21.367,27.728,21.367h144.79
		c13.29,0,24.47-9.089,27.728-21.367h37.358v76.998c0,13.018,11.454,23.609,25.529,23.609c14.073,0,25.525-10.59,25.525-23.609
		v-9.605h21.037c11.486,0,20.827-9.341,20.827-20.823v-46.57h20.478c3.448,0,6.243-2.792,6.243-6.24v-25.02
		C512,319.982,509.206,317.187,505.757,317.187z M12.485,342.205v-12.533h12.697v12.533H12.485z M118.609,329.672h35.16v12.533
		h-35.16V329.672z M327.275,363.572h-144.79c-8.922,0-16.179-7.235-16.227-16.143v-22.976c0.048-8.907,7.304-16.143,16.227-16.143
		h144.79c8.948,0,16.231,7.281,16.231,16.229v22.804C343.506,356.291,336.224,363.572,327.275,363.572z M391.6,342.205h-35.609
		v-12.533H391.6V342.205z M499.515,342.205H485.28v-12.533h14.235V342.205z"/>
	<g>
		<g>
			<path style="fill:#C9E084;" d="M266.627,271.959l0.16-0.095c3.545-2.076,118.719-89.77,119.196-149.721
				c0.315-40.925-23.764-60.356-52.319-60.356c-47.444,0-66.204,44.98-67.037,47.043c-0.835-2.063-19.595-47.043-67.052-47.043
				c-28.546,0-52.625,19.431-52.314,60.356c0.473,59.951,115.666,147.645,119.196,149.721L266.627,271.959z"/>
		</g>
	</g>
	<g>
		<path style="fill:#283182;" d="M157.286,118.426c0.002-0.58,0.013-1.15,0.034-1.718c0.131-3.446-2.553-6.344-5.999-6.476
			c-3.424-0.095-6.344,2.557-6.475,5.999c-0.026,0.708-0.043,1.424-0.045,2.171c0,7.699,1.64,15.277,4.874,22.51
			c1.038,2.322,3.314,3.701,5.703,3.701c0.85,0,1.715-0.175,2.542-0.546c3.148-1.407,4.562-5.101,3.152-8.247
			C158.561,130.197,157.286,124.338,157.286,118.426z"/>
		<path style="fill:#283182;" d="M164.398,83.504c-2.73-2.097-6.655-1.586-8.752,1.144c-0.222,0.293-2.238,2.958-4.478,7.46
			c-1.539,3.086-0.283,6.834,2.801,8.37c0.898,0.444,1.845,0.658,2.779,0.658c2.294,0,4.501-1.271,5.593-3.459
			c1.683-3.381,3.17-5.375,3.217-5.438C167.643,89.504,167.126,85.597,164.398,83.504z"/>
		<path style="fill:#283182;" d="M389.315,175.969h-33.373c11.879-17.934,19.91-36.115,20.04-52.612
			c0.162-21.235-5.969-38.724-17.727-50.573c-10.293-10.368-24.793-16.08-40.835-16.08c-36.76,0-57.735,24.934-67.022,39.931
			c-9.242-15.003-30.149-39.931-67.065-39.931c-16.041,0-30.544,5.712-40.833,16.082c-11.76,11.849-17.888,29.338-17.726,50.571
			c0.121,15.23,7.03,31.936,17.5,48.571h-19.593c-3.446,0-6.24,2.796-6.24,6.245c0,3.446,2.794,6.24,6.24,6.24h28.091
			c35.647,48.775,95.421,93.492,96.276,93.993c0.06,0.037,0.119,0.067,0.179,0.103c0.052,0.03,0.099,0.061,0.151,0.091
			c0.936,0.548,1.977,0.816,3.025,0.816c1.116,0,2.236-0.3,3.241-0.872c0.527-0.304,1.001-0.684,1.409-1.124
			c8.884-6.655,59.131-45.716,91.997-88.965h42.265c3.448,0,6.243-2.796,6.243-6.245
			C395.557,178.765,392.763,175.969,389.315,175.969z M137.261,123.259c-0.138-17.834,4.739-32.244,14.102-41.681
			c8.042-8.105,19.099-12.39,31.97-12.39c43.357,0,60.546,41.372,61.256,43.133c0.949,2.356,3.235,3.904,5.777,3.908
			c0.004,0,0.007,0,0.011,0c2.536,0,4.821-1.534,5.779-3.884c0.721-1.761,18.108-43.156,61.265-43.156
			c12.871,0,23.926,4.285,31.973,12.39c9.363,9.434,14.239,23.846,14.104,41.681c-0.125,15.929-9.317,34.398-22.498,52.709h-53.244
			l-8.558-13.786c-1.252-2.013-3.552-3.124-5.895-2.926c-2.356,0.225-4.389,1.767-5.237,3.981l-13.45,35.052l-24.01-57.72
			c-0.872-2.091-2.799-3.543-5.047-3.804c-2.277-0.25-4.46,0.716-5.781,2.548l-23.522,32.613h-39.292
			C145.297,154.941,137.378,137.999,137.261,123.259z M250.392,265.514c-13.303-9.842-55.316-44.322-84.222-81.102h33.278
			c2.007,0,3.888-0.963,5.062-2.587l18.857-26.146l25.719,61.824c0.969,2.332,3.243,3.845,5.762,3.845c0.03,0,0.058,0,0.088,0
			c2.555-0.037,4.827-1.621,5.74-4.005l14.541-37.896l3.761,6.057c1.137,1.834,3.142,2.95,5.302,2.95h47.125
			C302.626,223.79,263.043,256.173,250.392,265.514z"/>
	</g>
</g>
</svg>
