<?xml version="1.0" encoding="iso-8859-1"?>
<!-- Generator: Adobe Illustrator 19.0.0, SVG Export Plug-In . SVG Version: 6.00 Build 0)  -->
<svg version="1.1" id="Layer_1" xmlns="http://www.w3.org/2000/svg" xmlns:xlink="http://www.w3.org/1999/xlink" x="0px" y="0px"
	 viewBox="0 0 512 512" style="enable-background:new 0 0 512 512;" xml:space="preserve">
<g>
	<g>
		<path style="fill:#C9E084;" d="M362.061,281.905c0,11.449-9.363,20.816-20.814,20.816h-148.46
			c-11.449,0-20.812-9.367-20.812-20.816v-26.241c0-11.449,9.363-20.815,20.812-20.815h148.46c11.451,0,20.814,9.365,20.814,20.815
			V281.905z"/>
	</g>
	<path style="fill:#283182;" d="M506.219,237.686h-20.988v-47.125c0-11.244-9.151-20.391-20.396-20.391
		c-12.723,0.013-18.703,0.02-21.543,0.027v-10.118c0-12.783-11.261-23.181-25.103-23.181c-13.84,0-25.105,10.399-25.105,23.181
		v0.255c0,3.193,2.589,5.782,5.781,5.782c3.194,0,5.784-2.589,5.784-5.782v-0.255c0-6.408,6.072-11.618,13.54-11.618
		c7.464,0,13.538,5.21,13.538,11.618v101.574c0,3.194,2.589,5.783,5.783,5.783c3.192,0,5.781-2.589,5.781-5.783v-79.895
		c5.958-0.01,21.553-0.023,21.549-0.023c4.864,0,8.826,3.959,8.826,8.826v130.878c0,4.865-3.961,8.826-8.826,8.826l-21.549-0.004
		v-40.856c0-3.192-2.589-5.781-5.781-5.781c-3.194,0-5.783,2.589-5.783,5.781v62.516c0,6.407-6.074,11.618-13.538,11.618
		c-7.468,0-13.54-5.211-13.54-11.618c0-0.752-0.144-1.471-0.407-2.131c0.263-0.66,0.407-1.379,0.407-2.131V188.085
		c0-3.193-2.589-5.781-5.784-5.781c-3.192,0-5.781,2.588-5.781,5.781v49.601h-37.897c-2.423-12.187-13.194-21.405-26.079-21.405
		H180.649c-12.889,0-23.66,9.218-26.079,21.405h-37.196v-77.607c0-12.783-11.261-23.181-25.101-23.181
		c-13.844,0-25.105,10.399-25.105,23.181v10.118c-2.842-0.007-8.82-0.014-21.547-0.027c-11.247,0-20.393,9.147-20.393,20.391v47.125
		H5.783c-3.194,0-5.783,2.587-5.783,5.782v25.065c0,3.194,2.589,5.781,5.783,5.781h19.446v47.126c0,11.243,9.146,20.39,20.393,20.39
		h21.547v10.093c0,12.783,11.261,23.181,25.105,23.181c13.84,0,25.101-10.399,25.101-23.181V303.72c0-3.194-2.589-5.782-5.781-5.782
		c-3.196,0-5.782,2.588-5.782,5.782v48.201c0,6.407-6.072,11.618-13.538,11.618c-7.47,0-13.544-5.211-13.544-11.618V231.589
		c0-3.193-2.585-5.782-5.779-5.782c-3.196,0-5.782,2.589-5.782,5.782v98.653l-21.547,0.024c-4.87,0-8.829-3.961-8.829-8.826V190.561
		c0-4.866,3.959-8.826,8.826-8.826c0,0,15.587,0.013,21.551,0.024v22.078c0,3.195,2.586,5.782,5.782,5.782
		c3.194,0,5.779-2.587,5.779-5.782v-43.758c0-6.408,6.074-11.618,13.544-11.618c7.466,0,13.538,5.21,13.538,11.618v115.888
		c0,3.193,2.586,5.782,5.782,5.782c3.192,0,5.781-2.589,5.781-5.782v-1.653h37.196c2.419,12.187,13.19,21.406,26.079,21.406h148.458
		c12.885,0,23.656-9.219,26.079-21.406h37.897v73.347c0,0.752,0.146,1.471,0.407,2.131c-0.261,0.66-0.407,1.379-0.407,2.131
		c0,12.783,11.265,23.181,25.105,23.181c13.842,0,25.103-10.399,25.103-23.181v-10.093h21.549c11.239,0,20.391-9.147,20.391-20.39
		v-47.126h20.988c3.192,0,5.781-2.586,5.781-5.781v-25.065C512,240.273,509.411,237.686,506.219,237.686z M11.563,262.751v-13.502
		h13.666v13.502H11.563z M117.884,249.249h36.168v13.502h-36.168V249.249z M344.138,269.121c0,8.29-6.742,15.033-15.03,15.033
		H180.649c-8.29,0-15.036-6.743-15.036-15.033v-0.544c0-0.017,0.004-0.029,0.004-0.045v-25.065c0-0.016-0.004-0.031-0.004-0.045
		v-0.544c0-8.29,6.746-15.033,15.036-15.033h148.458c8.288,0,15.03,6.743,15.03,15.033v0.588v25.065V269.121z M392.321,262.751
		h-36.618v-13.502h36.618V262.751z M500.437,262.751h-15.206v-13.502h15.206V262.751z"/>
</g>
</svg>
