<?xml version="1.0" encoding="iso-8859-1"?>
<!-- Generator: Adobe Illustrator 19.0.0, SVG Export Plug-In . SVG Version: 6.00 Build 0)  -->
<svg version="1.1" id="Layer_1" xmlns="http://www.w3.org/2000/svg" xmlns:xlink="http://www.w3.org/1999/xlink" x="0px" y="0px"
	 viewBox="0 0 512 512" style="enable-background:new 0 0 512 512;" xml:space="preserve">
<g>
	<g>
		<path style="fill:#C9E084;" d="M475.223,306.879c0,37.349-30.279,67.628-67.63,67.628s-67.629-30.279-67.629-67.628
			c0-37.356,30.278-67.634,67.629-67.634S475.223,269.522,475.223,306.879z"/>
	</g>
	<g>
		<path style="fill:#C9E084;" d="M171.185,306.875c0,37.349-30.277,67.632-67.629,67.632c-37.351,0-67.629-30.283-67.629-67.632
			c0-37.352,30.277-67.63,67.629-67.63C140.909,239.245,171.185,269.522,171.185,306.875z"/>
	</g>
	<path style="fill:#283182;" d="M409.443,204.521c-14.6,0-28.486,3.087-41.071,8.61l-49.479-98.652h42.274
		c3.345,0,6.056-2.711,6.056-6.057c0-3.342-2.711-6.055-6.056-6.055h-52.087c-2.101,0-4.049,1.087-5.154,2.875
		c-1.103,1.786-1.201,4.018-0.26,5.897l28.021,55.868h-32.893c-3.346,0-6.057,2.711-6.057,6.055c0,3.346,2.711,6.057,6.057,6.057
		h30.966l-63.525,109.729c-3.393-2.255-7.458-3.575-11.829-3.575c-0.809,0-1.606,0.055-2.392,0.142
		c-0.012-0.022-0.018-0.046-0.03-0.067l-59.4-106.229h83.99c3.345,0,6.056-2.711,6.056-6.057c0-3.344-2.711-6.055-6.056-6.055
		h-90.762l-14.244-25.473h11.139c3.346,0,6.057-2.711,6.057-6.057c0-3.344-2.711-6.057-6.057-6.057h-37.953
		c-3.345,0-6.056,2.714-6.056,6.057c0,3.346,2.712,6.057,6.056,6.057h13.15c0.127,0.457,0.293,0.907,0.534,1.338l16.987,30.378
		l-24.994,43.17c-14.302-7.583-30.592-11.899-47.877-11.899c-15.394,0-30.195,3.33-43.994,9.891
		c-3.022,1.439-4.305,5.049-2.868,8.073c1.439,3.02,5.051,4.31,8.071,2.868c12.162-5.786,25.213-8.719,38.791-8.719
		c15.076,0,29.29,3.727,41.803,10.278l-42.199,72.891c-1.084,1.874-1.087,4.186-0.006,6.061c1.082,1.875,3.083,3.032,5.248,3.032
		h85.553c-0.974,49.032-41.136,88.625-90.399,88.625c-49.869,0-90.44-40.572-90.44-90.445c-0.005-17.096,4.787-33.742,13.856-48.135
		c1.782-2.834,0.935-6.571-1.896-8.353c-2.827-1.779-6.569-0.933-8.352,1.895C5.432,268.815-0.005,287.692,0,307.078
		c0,56.549,46.005,102.555,102.554,102.555c55.943,0,101.536-45.028,102.512-100.739h28.018
		c1.098,10.796,10.243,19.252,21.323,19.252c11.822,0,21.439-9.618,21.439-21.436c0-2.733-0.534-5.34-1.47-7.745l66.17-114.298
		l17.044,33.983c-30.306,17.839-50.701,50.786-50.701,88.427c0,24.598,8.841,48.386,24.895,66.986
		c2.185,2.53,6.008,2.808,8.543,0.628c2.532-2.186,2.812-6.01,0.628-8.545C326.797,349.749,319,328.769,319,307.078
		c0-32.912,17.675-61.764,44.025-77.588l38.758,77.274c1.063,2.117,3.199,3.344,5.418,3.344c0.913,0,1.84-0.207,2.71-0.646
		c2.991-1.502,4.198-5.138,2.7-8.13l-38.805-77.369c10.943-4.709,22.989-7.33,35.638-7.33c49.871,0,90.443,40.572,90.443,90.445
		c0,49.87-40.573,90.441-90.443,90.441c-11.432,0-22.572-2.103-33.107-6.251c-3.108-1.225-6.628,0.298-7.855,3.415
		c-1.225,3.111,0.304,6.628,3.417,7.853c11.954,4.709,24.586,7.096,37.545,7.096c56.55,0,102.557-46.006,102.557-102.555
		C512,250.527,465.994,204.521,409.443,204.521z M182.302,185.547l58.498,104.615c-2.205,1.816-4.031,4.069-5.37,6.618h-30.834
		c-3.072-30.667-19.719-57.379-43.815-74.063L182.302,185.547z M154.69,233.241c20.505,14.521,34.721,37.341,37.705,63.539h-74.492
		L154.69,233.241z M254.407,316.032c-5.14,0-9.322-4.183-9.322-9.322c0-5.142,4.182-9.324,9.322-9.324
		c5.141,0,9.326,4.182,9.326,9.324C263.732,311.849,259.548,316.032,254.407,316.032z"/>
</g>
</svg>
