<?xml version="1.0" encoding="iso-8859-1"?>
<!-- Generator: Adobe Illustrator 19.0.0, SVG Export Plug-In . SVG Version: 6.00 Build 0)  -->
<svg version="1.1" id="Layer_1" xmlns="http://www.w3.org/2000/svg" xmlns:xlink="http://www.w3.org/1999/xlink" x="0px" y="0px"
	 viewBox="0 0 512 512" style="enable-background:new 0 0 512 512;" xml:space="preserve">
<g>
	<g>
		<path style="fill:#FFE05F;" d="M291.679,296.629c-7.002-8.29-18.513-6.755-18.513-6.755l-15.008,0.061
			c0,0-11.503-1.537-18.507,6.751c-4.869,5.763-0.294,20.552-15.45,25.604v31.451c0,19.912,17.544,36.059,39.183,36.059h4.569
			c21.639,0,39.177-16.147,39.177-36.059v-31.512C291.973,317.181,296.552,302.39,291.679,296.629z"/>
	</g>
	<g>
		<circle style="fill:#FFE05F;" cx="81.993" cy="123.122" r="26.791"/>
	</g>
	<g>
		<circle style="fill:#FFE05F;" cx="447.088" cy="127.163" r="26.791"/>
	</g>
	<g>
		<path style="fill:#283182;" d="M175.175,174.862c12.399-0.377,54.712,0.643,55.138,0.653c0.045,0.002,0.087,0.002,0.128,0.002
			c2.836,0,5.166-2.26,5.234-5.111c0.075-2.889-2.214-5.293-5.107-5.362c-0.59-0.014-5.658-0.136-12.599-0.278
			c1.188-1.462,2.364-3.106,3.487-5.018c6.706-11.401,10.718-21.033,10.886-21.436c1.103-2.674-0.164-5.735-2.838-6.844
			c-2.67-1.103-5.735,0.164-6.842,2.832c-0.04,0.095-3.917,9.398-10.234,20.139c-4.985,8.472-10.822,9.928-11.215,10.019
			c-0.01,0.002-0.018,0.006-0.028,0.008c-10.455-0.156-20.958-0.241-26.33-0.077c-2.891,0.091-5.163,2.504-5.076,5.395
			C169.868,172.675,172.246,174.932,175.175,174.862z"/>
		<path style="fill:#283182;" d="M281.854,174.852c0.043,0,0.087,0,0.13,0c0.424-0.012,42.737-1.034,55.138-0.653
			c2.846,0.067,5.305-2.185,5.393-5.078c0.089-2.891-2.182-5.303-5.076-5.394c-5.218-0.16-15.28-0.085-25.438,0.061
			c-0.022-0.002-0.039-0.01-0.061-0.012c-0.237-0.034-5.834-0.979-10.755-9.34c-6.315-10.74-10.193-20.042-10.23-20.137
			c-1.107-2.668-4.172-3.935-6.842-2.832c-2.674,1.109-3.945,4.17-2.838,6.844c0.164,0.403,4.178,10.035,10.882,21.436
			c0.953,1.62,1.942,3.059,2.943,4.338c-7.335,0.148-12.76,0.278-13.37,0.294c-2.893,0.071-5.182,2.473-5.109,5.364
			C276.689,172.592,279.02,174.852,281.854,174.852z"/>
		<path style="fill:#283182;" d="M252.003,299.037v17.24c-3.063,0.549-7.349,1.145-11.604,1.145c-5.18,0-7.981-0.888-9.419-1.634
			c-2.577-1.328-5.731-0.322-7.063,2.246c-1.326,2.569-0.322,5.731,2.246,7.061c3.596,1.861,8.385,2.802,14.236,2.802
			c4.178,0,8.294-0.476,11.604-1v16.263c-3.063,0.549-7.347,1.143-11.602,1.143c-5.182,0-7.985-0.886-9.425-1.63
			c-2.573-1.326-5.731-0.326-7.061,2.248c-1.324,2.569-0.322,5.727,2.248,7.059c3.596,1.857,8.385,2.8,14.238,2.8
			c4.176,0,8.292-0.474,11.602-0.999v16.259c-3.063,0.55-7.351,1.147-11.608,1.147c-5.178,0-7.979-0.89-9.417-1.634
			c-2.577-1.324-5.729-0.322-7.063,2.246c-1.324,2.569-0.322,5.731,2.246,7.061c3.598,1.859,8.383,2.802,14.235,2.802
			c4.178,0,8.296-0.476,11.608-1.001v2.135c0,2.891,2.345,5.236,5.24,5.236c2.893,0,5.238-2.345,5.238-5.236v-2.264
			c2.749,0.418,6.218,0.777,10.146,0.777c5.488,0,10.734-0.695,15.588-2.062c2.784-0.783,4.405-3.676,3.621-6.463
			c-0.783-2.785-3.676-4.419-6.461-3.621c-3.931,1.107-8.221,1.67-12.749,1.67c-4.146,0-7.718-0.476-10.146-0.918v-16.267
			c2.749,0.417,6.218,0.776,10.146,0.776c5.488,0,10.734-0.691,15.588-2.058c2.784-0.783,4.405-3.677,3.621-6.463
			c-0.783-2.78-3.676-4.416-6.461-3.619c-3.931,1.107-8.221,1.668-12.749,1.668c-4.148,0-7.718-0.475-10.146-0.918v-16.267
			c2.749,0.418,6.218,0.778,10.146,0.778c5.488,0,10.734-0.693,15.588-2.06c2.784-0.783,4.405-3.676,3.621-6.461
			c-0.783-2.784-3.676-4.419-6.461-3.623c-3.931,1.107-8.221,1.668-12.749,1.668c-4.146,0-7.718-0.475-10.146-0.916v-17.114
			c0-2.891-2.345-5.238-5.238-5.238C254.348,293.799,252.003,296.146,252.003,299.037z"/>
		<path style="fill:#283182;" d="M257.243,394.785c-2.895,0-5.24,2.344-5.24,5.236v3.491c0,2.893,2.345,5.237,5.24,5.237
			c2.893,0,5.238-2.344,5.238-5.237v-3.491C262.48,397.129,260.136,394.785,257.243,394.785z"/>
		<path style="fill:#283182;" d="M303.613,408.945c12.687-5.764,24.646-13.641,26.922-31.654c0.059-0.199,0.124-0.395,0.16-0.604
			l19.257-112.935c9.463-6.406,12.987-18.894,15.474-27.719c0.787-2.783-0.833-5.676-3.619-6.461
			c-2.78-0.781-5.677,0.835-6.463,3.619c-3.296,11.693-6.733,21.55-15.417,23.719c-6.848,1.715-40.262,3.151-61.049,3.696
			c-2.893,0.077-5.174,2.484-5.099,5.374c0.075,2.848,2.404,5.101,5.234,5.101c0.045,0,0.093,0,0.138-0.002
			c4.902-0.128,44.491-1.224,59.488-3.314L320.64,373.32c-0.16,0.432-0.286,0.882-0.33,1.362
			c-1.036,11.671-6.542,18.14-21.031,24.725c-10.909,4.961-11.367,19.066-11.3,22.714c-8.632,0.902-18.574,1.496-29.856,1.496
			c-11.633,0-21.88-0.716-30.738-1.796c0.026-4.162-0.74-17.528-11.3-22.328c-14.487-6.587-19.993-13.058-21.031-24.725
			c-0.041-0.474-0.166-0.918-0.324-1.344l-1.569-9.206c-0.485-2.848-3.205-4.75-6.045-4.282c-2.854,0.483-4.77,3.189-4.284,6.043
			l1.545,9.054c-3.446,6.925-14.759,33.182-2.538,57.939c0.91,1.849,2.769,2.921,4.699,2.921c0.779,0,1.571-0.174,2.315-0.541
			c2.595-1.281,3.659-4.421,2.38-7.016c-0.659-1.334-1.221-2.678-1.715-4.028c11.302,3.876,34.178,9.786,68.605,9.786
			c33.474,0,55.738-4.93,67.127-8.332c-0.343,0.833-0.712,1.662-1.121,2.488c-1.277,2.595-0.213,5.735,2.38,7.016
			c0.744,0.365,1.537,0.543,2.315,0.543c1.932,0,3.789-1.074,4.701-2.923c7.594-15.383,6.465-27.952,3.74-38.699
			c-0.712-2.808-3.558-4.507-6.364-3.789c-2.808,0.706-4.501,3.558-3.789,6.362c1.409,5.563,1.962,9.307,1.147,16.95
			c-3.704,1.383-13.645,4.677-29.787,7.091C298.571,417.748,299.283,410.914,303.613,408.945z M189.374,391.3
			c5.117,8.709,13.57,13.727,22.375,17.731c4.077,1.851,4.947,7.975,5.119,11.247c-16.816-2.909-26.857-6.856-29.906-8.174
			C186.425,404.415,187.714,397.118,189.374,391.3z"/>
		<path style="fill:#283182;" d="M179.171,344.509c0.436,2.554,2.652,4.357,5.159,4.357c0.292,0,0.588-0.024,0.886-0.075
			c2.852-0.485,4.77-3.193,4.284-6.043l-12.774-74.902c14.994,2.094,54.588,3.189,59.49,3.317c0.045,0.002,0.089,0.002,0.138,0.002
			c2.83,0,5.159-2.256,5.234-5.101c0.073-2.889-2.206-5.297-5.099-5.372c-20.787-0.549-54.201-1.985-61.053-3.698
			c-8.679-2.167-12.117-12.024-15.415-23.719c-0.783-2.78-3.684-4.401-6.467-3.621c-2.782,0.788-4.403,3.683-3.617,6.467
			c2.49,8.823,6.015,21.313,15.48,27.715L179.171,344.509z"/>
		<path style="fill:#283182;" d="M265.432,288.455c0.039,0,0.079,0,0.12-0.002c2.745-0.063,7.691-0.122,9.289-0.01
			c11.491,0.801,14.55,8.415,18.588,20.771c3.489,10.67,7.442,22.768,21.151,26.355c0.442,0.114,0.89,0.17,1.328,0.17
			c2.325,0,4.45-1.559,5.066-3.911c0.73-2.802-0.945-5.664-3.742-6.396c-7.787-2.037-10.333-8.727-13.846-19.474
			c-3.876-11.866-8.705-26.63-27.818-27.968c-2.603-0.178-9.484-0.03-10.26-0.01c-2.891,0.063-5.182,2.467-5.113,5.358
			C260.262,286.19,262.593,288.455,265.432,288.455z"/>
		<path style="fill:#283182;" d="M211.976,305.96c-3.513,10.745-6.062,17.435-13.844,19.472c-2.796,0.732-4.474,3.594-3.742,6.396
			c0.616,2.352,2.741,3.911,5.066,3.911c0.438,0,0.884-0.055,1.328-0.17c13.708-3.588,17.658-15.685,21.148-26.355
			c4.038-12.356,7.094-19.97,18.588-20.771c1.598-0.11,6.548-0.053,9.289,0.01c2.844,0.095,5.291-2.224,5.354-5.115
			c0.071-2.891-2.222-5.295-5.111-5.358c-0.778-0.02-7.653-0.166-10.26,0.01C220.673,279.328,215.85,294.094,211.976,305.96z"/>
		<path style="fill:#283182;" d="M511.887,226.901c-0.036-43.438-9.845-118.097-30.859-140.948
			c-5.715-6.218-16.93-8.699-25.521-8.948c-11.497-0.32-21.603,2.852-27.666,8.733c-2.994,2.905-4.176,6.909-4.644,9.786
			c-11.006,5.739-18.55,17.242-18.55,30.492c0,18.965,15.425,34.389,34.386,34.389c2.406,0,4.752-0.253,7.02-0.724l-2.715,23.227
			c-5.936-6.116-14.225-9.936-23.401-9.936c-7.385,0-14.452,2.485-20.151,6.964c-7.862-9.727-19.814-15.563-32.511-15.563
			c-2.893,0-5.24,2.347-5.24,5.238c0,2.893,2.347,5.24,5.24,5.24c11.168,0,21.574,6.029,27.149,15.736
			c0.851,1.484,2.372,2.457,4.075,2.609c1.691,0.158,3.369-0.537,4.472-1.843c4.233-5.022,10.414-7.904,16.966-7.904
			c12.219,0,22.164,9.944,22.164,22.164c0,2.893,2.345,5.239,5.24,5.239c2.891,0,5.238-2.346,5.238-5.239
			c0-2.135-0.221-4.219-0.614-6.24l5.159-44.166c9.765-6.072,16.299-16.869,16.299-29.191c0-18.961-15.426-34.387-34.387-34.387
			c-0.669,0-1.322,0.063-1.981,0.101c4.241-2.887,10.807-4.448,18.158-4.251c9.169,0.264,15.815,3.069,18.106,5.563
			c18.089,19.675,28.094,91.781,28.094,134.1c0,0.168,0.01,0.333,0.027,0.501c0.008,0.116,0.847,11.855-5.419,13.641
			c-0.12,0.034-0.225,0.093-0.342,0.136c-0.174,0.063-0.349,0.124-0.517,0.207c-0.152,0.073-0.288,0.162-0.43,0.247
			c-0.148,0.093-0.296,0.182-0.438,0.288c-0.138,0.107-0.264,0.225-0.391,0.345c-0.12,0.113-0.241,0.219-0.351,0.343
			c-0.132,0.15-0.245,0.31-0.359,0.474c-0.063,0.091-0.142,0.168-0.201,0.266c-5.863,9.595-24.1,31.183-66.663,24.443
			c-10.844-1.721-20.435-6.98-26.312-14.432c-0.922-1.17-2.297-1.89-3.783-1.983c-1.512-0.085-2.943,0.452-4,1.492
			c-6.566,6.459-14.919,10.179-25.544,11.377c-2.875,0.324-4.941,2.917-4.62,5.792c0.328,2.873,2.915,4.944,5.796,4.618
			c10.978-1.237,20.066-4.754,27.618-10.704c7.45,7.302,17.814,12.382,29.205,14.187c3.434,0.543,9.095,1.221,15.955,1.221
			c18.081,0,44.464-4.718,60.269-28.96C510.778,246.411,512.511,234.083,511.887,226.901z M462.944,126.017
			c0,13.187-10.724,23.914-23.91,23.914c-13.185,0-23.908-10.728-23.908-23.914c0-10.033,6.22-18.629,15-22.172
			c0.041-0.016,0.085-0.028,0.124-0.045c2.723-1.082,5.682-1.693,8.784-1.693C452.22,102.106,462.944,112.834,462.944,126.017z"/>
		<path style="fill:#283182;" d="M423.721,126.017c0,8.446,6.868,15.318,15.312,15.318c8.446,0,15.316-6.872,15.316-15.318
			c0-8.442-6.87-15.314-15.316-15.314C430.589,110.703,423.721,117.574,423.721,126.017z M443.872,126.017
			c0,2.67-2.169,4.841-4.839,4.841s-4.837-2.171-4.837-4.841c0-2.666,2.167-4.839,4.837-4.839S443.872,123.351,443.872,126.017z"/>
		<path style="fill:#283182;" d="M72.968,109.826c-8.448,0-15.318,6.87-15.318,15.316c0,8.444,6.87,15.314,15.318,15.314
			c8.442,0,15.31-6.87,15.31-15.314C88.278,116.696,81.41,109.826,72.968,109.826z M72.968,129.979
			c-2.672,0-4.841-2.167-4.841-4.837s2.169-4.841,4.841-4.841c2.668,0,4.835,2.171,4.835,4.841S75.636,129.979,72.968,129.979z"/>
		<path style="fill:#283182;" d="M145.309,263.61c-10.621-1.198-18.973-4.918-25.535-11.373c-1.062-1.046-2.504-1.585-4.004-1.496
			c-1.486,0.095-2.861,0.815-3.783,1.985c-5.879,7.45-15.47,12.713-26.316,14.428c-42.552,6.731-60.796-14.842-66.657-24.441
			c-0.063-0.105-0.146-0.188-0.217-0.286c-0.109-0.154-0.215-0.308-0.342-0.45c-0.112-0.128-0.237-0.239-0.361-0.355
			c-0.124-0.114-0.247-0.233-0.383-0.335c-0.142-0.109-0.294-0.199-0.446-0.292c-0.138-0.085-0.272-0.172-0.421-0.245
			c-0.172-0.083-0.349-0.146-0.527-0.209c-0.114-0.041-0.217-0.101-0.335-0.134c-6.293-1.796-5.429-13.54-5.417-13.641
			c0.016-0.168,0.024-0.334,0.024-0.501c0-42.319,10.003-114.427,28.094-134.1c2.293-2.494,8.938-5.299,18.108-5.563
			c7.355-0.189,13.917,1.366,18.156,4.253c-0.659-0.038-1.312-0.101-1.979-0.101c-18.963,0-34.389,15.429-34.389,34.389
			c0,12.32,6.536,23.117,16.303,29.189l5.157,44.152c-0.395,2.027-0.616,4.115-0.616,6.256c0,2.893,2.346,5.238,5.238,5.238
			c2.893,0,5.24-2.344,5.24-5.238c0-12.226,9.946-22.168,22.168-22.168c6.548,0,12.731,2.879,16.962,7.902
			c1.103,1.306,2.785,2.005,4.474,1.845c1.701-0.156,3.221-1.127,4.071-2.607c5.579-9.709,15.983-15.738,27.153-15.738
			c2.893,0,5.238-2.344,5.238-5.238c0-2.895-2.345-5.239-5.238-5.239c-12.697,0-24.646,5.836-32.513,15.561
			c-5.699-4.478-12.764-6.963-20.147-6.963c-9.177,0-17.465,3.821-23.403,9.936l-2.713-23.229c2.265,0.472,4.612,0.724,7.018,0.724
			c18.959,0,34.385-15.424,34.385-34.383c0-13.25-7.545-24.753-18.55-30.494c-0.468-2.877-1.65-6.885-4.647-9.788
			c-6.06-5.879-16.107-9.034-27.666-8.733c-8.59,0.249-19.804,2.727-25.517,8.948c-21.013,22.853-30.825,97.51-30.861,140.95
			c-0.62,7.185,1.113,19.512,10.982,23.739c15.802,24.246,42.177,28.961,60.255,28.961c6.862,0,12.527-0.681,15.965-1.224
			c11.389-1.802,21.753-6.879,29.207-14.185c7.549,5.952,16.636,9.467,27.617,10.704c2.901,0.332,5.468-1.746,5.792-4.622
			C150.254,266.525,148.184,263.933,145.309,263.61z M96.878,125.142c0,13.185-10.726,23.908-23.91,23.908
			c-13.187,0-23.914-10.724-23.914-23.908s10.728-23.912,23.914-23.912c3.104,0,6.062,0.614,8.786,1.693
			c0.039,0.02,0.083,0.03,0.124,0.047C90.66,106.513,96.878,115.109,96.878,125.142z"/>
	</g>
</g>
</svg>
