<?xml version="1.0" encoding="iso-8859-1"?>
<!-- Generator: Adobe Illustrator 19.0.0, SVG Export Plug-In . SVG Version: 6.00 Build 0)  -->
<svg version="1.1" id="Layer_1" xmlns="http://www.w3.org/2000/svg" xmlns:xlink="http://www.w3.org/1999/xlink" x="0px" y="0px"
	 viewBox="0 0 512 512" style="enable-background:new 0 0 512 512;" xml:space="preserve">
<g>
	<g>
		<path style="fill:#C9E084;" d="M114.808,175.772V416.06h319.881V175.772H114.808z M223.344,382.147l21.829-86.565h-32.941
			l82.509-89.022l-21.822,86.557h32.936L223.344,382.147z"/>
	</g>
	<g>
		<path style="fill:#283182;" d="M406.649,96.522c-13.057-13.081-31.602-19.742-55.105-19.833v-8.12h5.05
			c3.893,0,7.139-3.299,7.41-7.185c0.022-0.33,0.038-0.667,0.038-1.017V26.379C364.042,11.833,352.209,0,337.664,0H167.722
			c-14.543,0-26.38,11.833-26.38,26.379v33.989c0,0.34,0.02,0.671,0.049,1.122c0.176,3.96,3.437,7.079,7.399,7.079h5.052v8.428
			c-24.015,1.573-42.747,8.967-55.757,22.056c-21.014,21.144-20.834,51.174-20.765,62.479l0.007,314.604
			c0,19.775,16.089,35.864,35.864,35.864h279.022c19.773,0,35.862-16.089,35.862-35.864V162.187
			C428.097,150.122,428.164,118.075,406.649,96.522z M92.143,423.747h24.578c4.091,0,7.408-3.317,7.408-7.408
			c0-4.091-3.317-7.408-7.408-7.408H92.143V191.869h260.248c4.091,0,7.408-3.316,7.408-7.409c0-4.092-3.317-7.409-7.408-7.409
			H92.143v-8.382h321.113v8.382h-25.299c-4.093,0-7.41,3.317-7.41,7.409c0,4.093,3.317,7.409,7.41,7.409h25.299V408.93H152.285
			c-4.091,0-7.408,3.317-7.408,7.408c0,4.091,3.317,7.408,7.408,7.408h260.971v9.951H92.143V423.747z M194.305,68.569
			c4.091,0,7.408-3.318,7.408-7.41s-3.317-7.409-7.408-7.409h-38.142v-27.37c0-6.375,5.186-11.561,11.56-11.561h169.941
			c6.374,0,11.559,5.186,11.559,11.561l-0.002,27.37H229.869c-4.091,0-7.408,3.317-7.408,7.409s3.317,7.41,7.408,7.41h106.854v8.102
			H168.661v-8.102H194.305z M108.597,109.5c11.877-11.95,30.458-18.01,55.228-18.01h187.238c19.662,0,34.832,5.216,45.097,15.5
			c13.662,13.69,16.411,33.922,16.959,46.859h-320.9C92.657,141.617,95.169,123.011,108.597,109.5z M392.213,497.181H113.191
			c-11.604,0-21.048-9.441-21.048-21.046v-27.619h321.113v27.619C413.256,487.74,403.815,497.181,392.213,497.181z"/>
		<path style="fill:#283182;" d="M197.985,308.524h23.43l-19.499,77.343c-0.828,3.284,0.674,6.71,3.649,8.325
			c1.114,0.605,2.327,0.897,3.533,0.897c2.009,0,3.996-0.819,5.437-2.372l82.511-89.027c2-2.158,2.532-5.302,1.355-8
			c-1.179-2.701-3.846-4.445-6.792-4.445h-23.43l19.502-77.338c0.828-3.282-0.674-6.71-3.649-8.325
			c-2.974-1.614-6.665-1.008-8.968,1.475l-82.514,89.022c-2,2.158-2.532,5.302-1.353,8
			C192.374,306.777,195.039,308.524,197.985,308.524z M266.222,238.393l-14.738,58.449c-0.558,2.216-0.064,4.565,1.342,6.365
			c1.404,1.804,3.56,2.856,5.844,2.856h15.969l-51.266,55.314l14.738-58.454c0.556-2.211,0.062-4.563-1.342-6.362
			c-1.404-1.802-3.562-2.856-5.844-2.856h-15.971L266.222,238.393z"/>
	</g>
</g>
</svg>
