<?xml version="1.0" encoding="iso-8859-1"?>
<!-- Generator: Adobe Illustrator 19.0.0, SVG Export Plug-In . SVG Version: 6.00 Build 0)  -->
<svg version="1.1" id="Layer_1" xmlns="http://www.w3.org/2000/svg" xmlns:xlink="http://www.w3.org/1999/xlink" x="0px" y="0px"
	 viewBox="0 0 512 512" style="enable-background:new 0 0 512 512;" xml:space="preserve">
<g>
	<g>
		<g>
			<polygon style="fill:#C9E084;" points="92.515,165.872 92.515,338.585 269.243,338.585 367.658,165.872 			"/>
		</g>
		<g>
			<path style="fill:#283182;" d="M505.358,194.097h-29.367v-39.445c0-12.452-10.131-22.583-22.585-22.583H22.584
				C10.132,132.069,0,142.2,0,154.652v202.695c0,12.452,10.132,22.583,22.584,22.583h430.822c12.453,0,22.585-10.131,22.585-22.583
				v-39.44h29.367c3.669,0,6.642-2.974,6.642-6.644V200.739C512,197.071,509.027,194.097,505.358,194.097z M462.707,357.348
				c0,5.128-4.173,9.299-9.3,9.299H22.584c-5.126,0-9.299-4.172-9.299-9.299V154.652c0-5.125,4.173-9.299,9.299-9.299h430.822
				c5.128,0,9.3,4.174,9.3,9.299V357.348z M498.715,304.621h-22.724v-97.238h22.724V304.621z"/>
			<path style="fill:#283182;" d="M413.182,165.477H134.064c-3.67,0-6.644,2.97-6.644,6.64c0,3.67,2.974,6.644,6.644,6.644h71.909
				l-88.463,153.304c-0.22,0.382-0.392,0.777-0.529,1.179H63.824c-0.722,0-1.33-0.607-1.33-1.33V180.088
				c0-0.72,0.608-1.328,1.33-1.328H91.55c3.669,0,6.643-2.974,6.643-6.644c0-3.67-2.974-6.64-6.643-6.64H63.824
				c-8.059,0-14.615,6.554-14.615,14.612v151.826c0,8.058,6.556,14.616,14.615,14.616h349.358c8.058,0,14.613-6.558,14.613-14.616
				V321.55c0-3.67-2.972-6.642-6.642-6.642c-3.669,0-6.643,2.972-6.643,6.642v10.364c0,0.723-0.608,1.33-1.327,1.33h-135.99
				l89.139-154.483h46.851c0.719,0,1.327,0.607,1.327,1.328v98.948c0,3.672,2.975,6.642,6.643,6.642c3.67,0,6.642-2.97,6.642-6.642
				v-98.948C427.794,172.03,421.239,165.477,413.182,165.477z M261.854,333.244H132.169l89.141-154.483h129.682L261.854,333.244z"/>
		</g>
	</g>
	<path style="fill:#283182;" d="M263.478,197.897c-2.569-1.397-5.764-0.87-7.754,1.275l-52.609,56.764
		c-1.732,1.867-2.193,4.584-1.172,6.915c1.019,2.336,3.323,3.846,5.871,3.846h12.777l-11.909,47.213
		c-0.716,2.838,0.582,5.8,3.156,7.197c0.962,0.525,2.014,0.777,3.053,0.777c1.741,0,3.458-0.71,4.702-2.052l52.612-56.753
		c1.731-1.867,2.192-4.581,1.171-6.919c-1.018-2.334-3.323-3.842-5.871-3.842h-12.781l11.911-47.223
		C267.352,202.257,266.053,199.293,263.478,197.897z M227.237,292.738l7.789-30.881c0.484-1.916,0.056-3.949-1.157-5.505
		c-1.215-1.559-3.079-2.468-5.054-2.468h-6.327l25.59-27.61l-7.789,30.883c-0.485,1.914-0.057,3.947,1.157,5.504
		c1.213,1.559,3.078,2.47,5.054,2.47h6.329L227.237,292.738z"/>
</g>
</svg>
