<?xml version="1.0" encoding="iso-8859-1"?>
<!-- Generator: Adobe Illustrator 19.0.0, SVG Export Plug-In . SVG Version: 6.00 Build 0)  -->
<svg version="1.1" id="Layer_1" xmlns="http://www.w3.org/2000/svg" xmlns:xlink="http://www.w3.org/1999/xlink" x="0px" y="0px"
	 viewBox="0 0 512 512" style="enable-background:new 0 0 512 512;" xml:space="preserve">
<g>
	<g>
		<path style="fill:#FFD561;" d="M430.214,359.99c-40.893,0-40.893-33.53-81.782-33.53c-40.893,0-40.893,33.53-81.778,33.53
			s-40.884-33.53-81.769-33.53s-40.884,33.53-81.769,33.53c-40.884,0-40.884-33.53-81.773-33.53V431.52
			c40.889,0,40.889,33.531,81.773,33.531c40.884,0,40.884-33.531,81.769-33.531s40.884,33.531,81.769,33.531
			s40.884-33.531,81.778-33.531c40.889,0,40.889,33.531,81.782,33.531c40.898,0,40.898-33.531,81.786-33.531V326.46
			C471.111,326.46,471.111,359.99,430.214,359.99z"/>
	</g>
	<g>
		<path style="fill:#283182;" d="M497.469,361.026c-22.507,0-34.28,7.841-44.667,14.762c-10.054,6.695-18.734,12.476-37.12,12.476
			s-27.065-5.782-37.117-12.476c-10.387-6.921-22.159-14.762-44.667-14.762c-22.503,0-34.275,7.843-44.66,14.762
			c-10.05,6.695-18.729,12.476-37.111,12.476c-18.383,0-27.063-5.782-37.113-12.476c-9.193-6.125-19.613-13.065-37.584-14.491
			c-3.69-0.309-7.03,2.5-7.327,6.25c-0.297,3.749,2.5,7.03,6.252,7.327c14.443,1.146,22.166,6.291,31.108,12.248
			c10.387,6.918,22.159,14.762,44.665,14.762c22.503,0,34.273-7.842,44.658-14.762c10.05-6.696,18.73-12.476,37.113-12.476
			c18.386,0,27.065,5.78,37.117,12.476c10.389,6.919,22.161,14.762,44.667,14.762c22.507,0,34.28-7.842,44.667-14.762
			c10.052-6.696,18.732-12.476,37.119-12.476c3.76,0,6.809-3.049,6.809-6.81C504.279,364.073,501.23,361.026,497.469,361.026z"/>
		<path style="fill:#283182;" d="M6.809,374.645c18.383,0,27.063,5.78,37.113,12.476c10.385,6.919,22.155,14.762,44.658,14.762
			c22.505,0,34.278-7.843,44.665-14.763c3.342-2.225,6.497-4.329,9.964-6.181c3.318-1.772,4.569-5.898,2.795-9.215
			c-1.773-3.319-5.902-4.568-9.217-2.798c-4.047,2.164-7.631,4.551-11.094,6.861c-10.05,6.694-18.729,12.476-37.113,12.476
			c-18.379,0-27.059-5.782-37.108-12.476c-10.385-6.919-22.159-14.762-44.662-14.762c-3.76,0-6.809,3.048-6.809,6.809
			C0,371.596,3.049,374.645,6.809,374.645z"/>
		<path style="fill:#283182;" d="M497.469,413.774c-22.507,0-34.28,7.841-44.667,14.761c-10.054,6.696-18.734,12.477-37.12,12.477
			s-27.065-5.782-37.117-12.477c-10.387-6.919-22.159-14.761-44.667-14.761c-22.505,0-34.28,7.843-44.665,14.761
			c-1.498,0.997-2.989,1.993-4.518,2.966c-3.175,2.02-4.109,6.23-2.086,9.402c2.022,3.174,6.232,4.102,9.4,2.086
			c1.61-1.024,3.183-2.072,4.754-3.119c10.05-6.696,18.729-12.478,37.115-12.478c18.386,0,27.065,5.782,37.117,12.478
			c10.389,6.919,22.161,14.761,44.667,14.761c22.507,0,34.28-7.841,44.667-14.761c10.052-6.696,18.732-12.478,37.119-12.478
			c3.76,0,6.809-3.048,6.809-6.809C504.279,416.822,501.23,413.774,497.469,413.774z"/>
		<path style="fill:#283182;" d="M252.426,441.012h-0.297c-18.383,0-27.065-5.782-37.115-12.477
			c-10.385-6.919-22.157-14.761-44.662-14.761c-22.503,0-34.275,7.843-44.66,14.761c-10.05,6.696-18.73,12.477-37.111,12.477
			c-18.379,0-27.059-5.782-37.108-12.477c-10.385-6.918-22.159-14.761-44.662-14.761c-3.76,0-6.809,3.048-6.809,6.809
			c0,3.762,3.049,6.809,6.809,6.809c18.383,0,27.063,5.782,37.113,12.478c10.385,6.919,22.155,14.761,44.658,14.761
			c22.505,0,34.275-7.841,44.66-14.761c10.05-6.696,18.73-12.478,37.111-12.478c18.383,0,27.063,5.782,37.113,12.478
			c10.385,6.918,22.159,14.761,44.665,14.761h0.297c3.763,0,6.809-3.048,6.809-6.809S256.188,441.012,252.426,441.012z"/>
		<path style="fill:#283182;" d="M6.809,321.894c18.383,0,27.063,5.781,37.113,12.477c10.385,6.919,22.155,14.762,44.658,14.762
			c22.505,0,34.275-7.843,44.66-14.762c10.05-6.696,18.73-12.477,37.111-12.477c18.383,0,27.063,5.781,37.113,12.477
			c10.385,6.918,22.159,14.762,44.665,14.762c22.503,0,34.273-7.843,44.658-14.762c10.05-6.696,18.73-12.477,37.113-12.477
			c18.386,0,27.065,5.781,37.117,12.477c10.389,6.919,22.161,14.762,44.667,14.762c22.507,0,34.28-7.843,44.667-14.762
			c10.052-6.696,18.732-12.477,37.119-12.477c3.76,0,6.809-3.048,6.809-6.809c0-3.762-3.049-6.809-6.809-6.809
			c-22.507,0-34.28,7.841-44.667,14.762c-10.054,6.695-18.734,12.476-37.12,12.476s-27.065-5.782-37.117-12.476
			c-9.797-6.526-20.833-13.865-40.935-14.68V87.29c0-22.244-18.095-40.34-40.34-40.34h-7.794c-3.763,0-6.809,3.049-6.809,6.809
			c0,3.762,3.047,6.81,6.809,6.81h7.794c14.733,0,26.722,11.987,26.722,26.721v46.826h-125.53V80.998
			c0-18.775-15.275-34.049-34.048-34.049h-20.379c-18.773,0-34.046,15.274-34.046,34.049v32c0,3.76,3.047,6.809,6.809,6.809
			c3.76,0,6.809-3.049,6.809-6.809v-32c0-11.266,9.164-20.429,20.428-20.429h20.379c11.263,0,20.428,9.163,20.428,20.429v228.527
			c-4.307-0.786-9.091-1.25-14.511-1.25c-22.503,0-34.275,7.843-44.66,14.762c-10.05,6.695-18.73,12.476-37.111,12.476
			c-18.379,0-27.059-5.782-37.108-12.476c-10.385-6.919-22.159-14.762-44.662-14.762c-3.76,0-6.809,3.048-6.809,6.809
			C0,318.846,3.049,321.894,6.809,321.894z M198.482,216.458h125.53v56.248h-125.53V216.458z M324.012,147.734v55.105h-125.53
			v-55.105H324.012z M198.482,311.381v-25.056h125.53v22.523c-16.28,1.905-26.032,8.365-34.773,14.189
			c-10.05,6.695-18.729,12.476-37.111,12.476c-18.383,0-27.065-5.782-37.115-12.476c-4.965-3.309-10.263-6.819-16.883-9.592
			C198.339,312.79,198.482,312.106,198.482,311.381z"/>
	</g>
</g>
</svg>
