<?xml version="1.0" encoding="iso-8859-1"?>
<!-- Generator: Adobe Illustrator 19.0.0, SVG Export Plug-In . SVG Version: 6.00 Build 0)  -->
<svg version="1.1" id="Layer_1" xmlns="http://www.w3.org/2000/svg" xmlns:xlink="http://www.w3.org/1999/xlink" x="0px" y="0px"
	 viewBox="0 0 512 512" style="enable-background:new 0 0 512 512;" xml:space="preserve">
<g>
	<path style="fill:#FFD561;" d="M380.306,251.705c0,58.254-47.221,105.481-105.481,105.481h-12.303
		c-58.26,0-105.487-47.227-105.487-105.481V145.123c0-58.254,47.227-105.478,105.487-105.478h12.303
		c58.26,0,105.481,47.224,105.481,105.478V251.705z"/>
	<g>
		<path style="fill:#283182;" d="M254.371,326.378c-5.014,0-9.077,4.062-9.077,9.077v9.079c0,5.011,4.062,9.077,9.077,9.077
			c5.017,0,9.077-4.065,9.077-9.077v-9.079C263.448,330.44,259.389,326.378,254.371,326.378z"/>
		<path style="fill:#283182;" d="M272.777,371.072c0.47,4.68,4.414,8.172,9.024,8.172c0.304,0,0.609-0.016,0.916-0.047
			c60.001-6.036,105.243-56.124,105.243-116.506V130.486c0-5.015-4.062-9.077-9.077-9.077c-5.014,0-9.077,4.062-9.077,9.077v132.205
			c0,51.018-38.222,93.344-88.908,98.441C275.912,361.633,272.273,366.086,272.777,371.072z"/>
		<path style="fill:#283182;" d="M129.915,269.205c5.012,0,9.077-4.06,9.077-9.077V128.378c0-0.041,0-0.075,0-0.111
			c0-0.039,0-0.075,0-0.114c0-50.916,38.134-93.227,88.698-98.422c4.99-0.515,8.617-4.973,8.106-9.962
			c-0.515-4.981-4.934-8.623-9.962-8.103c-59.857,6.155-104.997,56.234-104.997,116.487v131.975
			C120.836,265.146,124.898,269.205,129.915,269.205z"/>
		<path style="fill:#283182;" d="M214.658,103.5c-9.666,0-17.423-1.561-22.44-4.516c-4.317-2.54-9.885-1.104-12.431,3.215
			c-2.54,4.32-1.101,9.882,3.216,12.428c7.92,4.663,18.568,7.029,31.655,7.029c10.745,0,21.375-1.574,29.264-3.13v53.151
			c-7.115,1.566-18.314,3.556-29.408,3.556c-9.663,0-17.428-1.561-22.446-4.519c-4.317-2.538-9.885-1.107-12.428,3.219
			c-2.543,4.317-1.104,9.882,3.215,12.428c7.917,4.663,18.566,7.029,31.658,7.029c10.812,0,21.505-1.597,29.408-3.16v52.935
			c-7.023,1.594-18.823,3.797-30.507,3.797c-9.661,0-17.423-1.558-22.437-4.516c-4.311-2.54-9.887-1.104-12.431,3.216
			c-2.543,4.317-1.104,9.882,3.216,12.431c7.917,4.663,18.568,7.029,31.652,7.029c11.318,0,22.512-1.746,30.507-3.379v7.264
			c0,5.011,4.062,9.077,9.077,9.077c5.014,0,9.08-4.065,9.08-9.077v-7.173c6.467,1.226,15.131,2.363,25.036,2.363
			c12.4,0,24.236-1.776,35.175-5.283c4.779-1.533,7.405-6.644,5.875-11.415c-1.528-4.776-6.656-7.403-11.413-5.878
			c-9.151,2.933-19.119,4.419-29.638,4.419c-10.507,0-19.426-1.5-25.036-2.745v-53.403c6.569,1.298,15.641,2.574,26.131,2.574
			c12.4,0,24.236-1.776,35.175-5.283c4.776-1.533,7.405-6.639,5.875-11.415c-1.528-4.777-6.65-7.394-11.415-5.875
			c-9.149,2.933-19.117,4.419-29.635,4.419c-11.202,0-20.627-1.708-26.131-2.992v-53.193c6.583,1.312,15.702,2.607,26.278,2.607
			c12.4,0,24.236-1.777,35.175-5.286c4.774-1.53,7.405-6.641,5.875-11.412c-1.527-4.779-6.647-7.4-11.418-5.878
			c-9.146,2.933-19.114,4.419-29.632,4.419c-11.31,0-20.799-1.743-26.278-3.025V43.864c0-5.017-4.065-9.08-9.08-9.08
			c-5.015,0-9.077,4.062-9.077,9.08v56.115C236.799,101.54,225.68,103.5,214.658,103.5z"/>
		<path style="fill:#283182;" d="M511.562,487.136c-6.318-19.672-22.67-55.877-34.605-82.31
			c-5.881-13.009-10.953-24.247-12.882-29.212c-20.558-52.95-63.158-190.587-14.83-324.682c1.702-4.718-0.747-9.921-5.46-11.62
			c-4.727-1.713-9.921,0.747-11.62,5.463c-50.409,139.868-6.312,282.555,14.982,337.408c1.334,3.432,3.8,9.066,7.007,16.23
			c-16.122,7.004-72.976,26.917-198.117,26.917c-20.901,0-41.487-0.681-61.174-2.009c-4.951-0.346-9.334,3.434-9.669,8.44
			c-0.343,5.003,3.437,9.334,8.44,9.672c20.094,1.362,41.092,2.053,62.403,2.053c127.459,0,186.904-20.37,205.577-28.517
			c3.279,7.261,6.832,15.148,10.394,23.168C451.295,445.72,380.062,468,257.855,468c-120.427,0-193.047-24.911-215.426-33.944
			c2.911-6.52,5.77-12.86,8.437-18.771c8.039,3.271,29.154,10.698,69.34,17.586c0.523,0.089,1.038,0.133,1.547,0.133
			c4.339,0,8.178-3.122,8.936-7.544c0.85-4.943-2.471-9.633-7.411-10.482c-37.923-6.501-57.787-13.416-64.946-16.264
			c2.961-6.636,5.252-11.888,6.514-15.137c21.3-54.856,65.397-197.546,14.988-337.411c-1.699-4.718-6.894-7.176-11.62-5.463
			c-4.716,1.699-7.162,6.899-5.46,11.617c48.328,134.098,5.728,271.732-14.833,324.684c-1.926,4.962-7.001,16.2-12.879,29.212
			c-11.935,26.43-28.287,62.635-34.605,82.305c-1.536,4.774,1.09,9.887,5.864,11.421c0.922,0.296,1.86,0.44,2.781,0.44
			c3.835,0,7.4-2.455,8.639-6.306c3.407-10.607,10.07-26.677,17.343-43.356c23.611,9.749,97.675,35.433,222.79,35.433
			c127.597,0,200.209-23.281,221.464-31.315c6.321,14.661,11.925,28.414,14.957,37.848c1.24,3.849,4.804,6.304,8.639,6.304
			c0.922,0,1.859-0.141,2.781-0.44C510.468,497.021,513.097,491.906,511.562,487.136z"/>
	</g>
</g>
</svg>
