<?xml version="1.0" encoding="iso-8859-1"?>
<!-- Generator: Adobe Illustrator 19.0.0, SVG Export Plug-In . SVG Version: 6.00 Build 0)  -->
<svg version="1.1" id="Layer_1" xmlns="http://www.w3.org/2000/svg" xmlns:xlink="http://www.w3.org/1999/xlink" x="0px" y="0px"
	 viewBox="0 0 512 512" style="enable-background:new 0 0 512 512;" xml:space="preserve">
<g>
	<g>
		<path style="fill:#FFD561;" d="M321.87,111.266c-11.139,0-20.17,9.031-20.17,20.172l-0.326-10.273
			c0-10.609-8.6-19.211-19.211-19.211c-10.611,0-19.212,8.602-19.212,19.211v4.654c-1.147-9.507-9.232-16.878-19.05-16.878
			c-10.617,0-19.214,8.597-19.214,19.204v0.463c-2.972-7.431-10.225-12.69-18.72-12.69c-0.139,0-0.269,0.02-0.403,0.022
			c-0.103-0.002-0.208-0.018-0.311-0.018c-8.744,0-16.109,5.85-18.437,13.845c-0.657,1.99-1.024,4.112-1.024,6.323v40.569
			l29.359-0.194l4.652,25.195c0,1.363,46.9,4.262,46.9,4.262l-26.94,25.393c0,0-52.922-1.523-52.36,1.177
			c3.16,15.197,10.809,28.826,21.445,39.56v153.369h121.037V261.16c0,0,14.343-12.017,12.16-82.809c-0.36-11.722,0-46.913,0-46.913
			C342.043,120.297,333.013,111.266,321.87,111.266z"/>
	</g>
	<path style="fill:#283182;" d="M506.185,179.245H485.08v-47.394c0-11.307-9.203-20.504-20.516-20.504
		c-12.792,0.01-18.805,0.016-21.663,0.026v-10.176c0-12.856-11.327-23.314-25.245-23.314c-13.92,0-25.247,10.459-25.247,23.314
		v0.255c0,3.212,2.601,5.815,5.813,5.815c3.214,0,5.815-2.603,5.815-5.815v-0.255c0-6.442,6.111-11.685,13.619-11.685
		c7.506,0,13.615,5.243,13.615,11.685v102.152c0,3.212,2.603,5.813,5.815,5.813c3.21,0,5.815-2.601,5.815-5.813v-80.348
		c5.995-0.012,21.671-0.024,21.667-0.024c4.897,0,8.88,3.979,8.88,8.875v131.623c0,4.895-3.983,8.876-8.88,8.876l-21.667-0.006
		v-41.087c0-3.212-2.605-5.815-5.815-5.815c-3.212,0-5.815,2.603-5.815,5.815v62.872c0,6.44-6.109,11.683-13.615,11.683
		c-7.508,0-13.619-5.243-13.619-11.683c0-0.757-0.144-1.483-0.405-2.144c0.261-0.662,0.405-1.386,0.405-2.142V129.361
		c0-3.21-2.601-5.815-5.815-5.815c-3.212,0-5.813,2.605-5.813,5.815v49.884h-36.912c-2.882-7.88-9.341-14.038-17.426-16.465v-29.364
		c0-14.327-11.657-25.986-25.986-25.986c-6.323,0-12.12,2.274-16.631,6.044c-3.789-9.011-12.705-15.354-23.077-15.354
		c-9.464,0-17.717,5.285-21.97,13.056c-4.381-3.774-10.067-6.072-16.291-6.072c-9.308,0-17.432,5.117-21.744,12.676
		c-4.444-3.554-10.069-5.698-16.192-5.698c-0.136,0-0.265,0.02-0.401,0.022c-0.103-0.002-0.208-0.016-0.31-0.016
		c-11.341,0-20.929,7.587-23.991,17.95c-0.827,2.53-1.286,5.225-1.286,8.03v24.639c-7.259,2.302-12.504,8.236-14.695,16.538h-37.458
		v-78.048c0-12.856-11.325-23.314-25.247-23.314c-13.92,0-25.243,10.459-25.243,23.314v10.176c-2.862-0.01-8.873-0.016-21.671-0.026
		c-11.309,0-20.508,9.197-20.508,20.504v47.394H5.815c-3.212,0-5.815,2.603-5.815,5.815v25.205c0,3.212,2.603,5.815,5.815,5.815
		h19.557v47.394c0,11.307,9.199,20.504,20.508,20.504H67.55v10.152c0,12.854,11.323,23.312,25.243,23.312
		c13.922,0,25.247-10.459,25.247-23.312v-48.476c0-3.212-2.603-5.815-5.815-5.815c-3.212,0-5.815,2.603-5.815,5.815v48.476
		c0,6.44-6.106,11.683-13.617,11.683c-7.508,0-13.615-5.243-13.615-11.683V173.112c0-3.21-2.603-5.815-5.815-5.815
		c-3.212,0-5.813,2.605-5.813,5.815v99.213l-21.671,0.026c-4.897,0-8.88-3.981-8.88-8.876V131.851c0-4.895,3.983-8.875,8.876-8.875
		c0,0,15.678,0.01,21.675,0.022v22.203c0,3.212,2.601,5.815,5.813,5.815c3.212,0,5.815-2.603,5.815-5.815v-44.004
		c0-6.442,6.107-11.685,13.615-11.685c7.512,0,13.617,5.243,13.617,11.685v116.544c0,3.212,2.603,5.817,5.815,5.817
		c3.212,0,5.815-2.605,5.815-5.817v-1.661h36.999c2.021,8.843,8.431,16.012,16.811,19.113c3.099,15.344,10.458,29.525,21.398,41.184
		v146.11h-12.539c-3.212,0-5.815,2.603-5.815,5.815c0,3.21,2.603,5.815,5.815,5.815h70.354c3.212,0,5.815-2.605,5.815-5.815
		c0-3.212-2.603-5.815-5.815-5.815h-46.188V274.032c0-1.533-0.605-3.002-1.685-4.094c-9.274-9.361-15.775-20.718-19.015-33.063
		h50.98c-1.768,3.643-3.331,7.64-4.616,12.045c-0.902,3.081,0.868,6.309,3.954,7.209c0.542,0.158,1.092,0.235,1.63,0.235
		c2.518,0,4.838-1.647,5.577-4.189c11.533-39.501,48.051-40.225,49.655-40.234c3.206-0.008,5.799-2.609,5.799-5.815
		c0-3.212-2.601-5.815-5.813-5.815c-0.046,0-0.475,0.006-1.222,0.049c-0.53-0.156-1.08-0.267-1.658-0.267h-54.726
		c-7.385,0-13.392-6.011-13.392-13.396s6.007-13.392,13.392-13.392h74.715c6.833-0.081,11.396,1.159,13.987,3.722
		c2.524,2.494,3.827,6.912,4.007,13.419v23.7c0,19.07-7.589,37.232-21.372,51.138c-1.078,1.092-1.683,2.561-1.683,4.094v153.104
		v0.004h-15.114c-3.212,0-5.813,2.603-5.813,5.815c0,3.21,2.601,5.815,5.813,5.815h37.214c3.21,0,5.815-2.605,5.815-5.815
		c0-3.212-2.605-5.815-5.815-5.815h-10.468v-0.004V271.726c9.501-10.126,16.252-22.082,19.899-34.962
		c11.173-0.947,19.541-9.096,21.679-20.684h35.812v73.764c0,0.755,0.144,1.479,0.405,2.142c-0.261,0.661-0.405,1.387-0.405,2.144
		c0,12.854,11.327,23.312,25.247,23.312c13.918,0,25.245-10.459,25.245-23.312v-10.152h21.667c11.309,0,20.512-9.197,20.512-20.504
		V216.08h21.105c3.212,0,5.815-2.603,5.815-5.815V185.06C512,181.848,509.397,179.245,506.185,179.245z M11.63,204.45v-13.576
		h13.742v13.576H11.63z M312.086,119.061c7.917,0,14.359,6.44,14.359,14.355v28.227h-15.745c-0.224,0-0.433,0.044-0.649,0.069
		c-0.552-0.012-1.08-0.044-1.65-0.038h-10.67v-28.259C297.731,125.501,304.169,119.061,312.086,119.061z M272.377,109.749
		c7.387,0,13.398,6.009,13.398,13.394v34.208c0,0.651,0.131,1.262,0.326,1.845v2.478h-26.965v-31.55
		c0-0.922-0.055-1.826-0.154-2.718v-4.264C258.982,115.758,264.992,109.749,272.377,109.749z M182.071,161.154v-24.042
		c0-1.256,0.186-2.47,0.512-3.623c1.877-5.552,7.055-9.586,13.196-9.756c7.245,0.168,13.085,6.097,13.085,13.38v24.042
		c0,7.385-6.01,13.396-13.396,13.396S182.071,168.54,182.071,161.154z M118.552,190.875h35.796v13.576h-35.796V190.875z
		 M233.735,211.723h23.14c-5.073,3.394-10.071,7.806-14.509,13.522h-61.27c-8.336,0-15.118-6.78-15.118-15.116v-21.738
		c0-3.979,0.845-12.573,7.893-14.655c4.345,7.429,12.387,12.444,21.598,12.444c5.053,0,9.752-1.517,13.69-4.106
		c-0.281,1.503-0.445,3.044-0.445,4.624C208.714,200.495,219.938,211.723,233.735,211.723z M222.165,164.535v-26.467
		c0-2.951-0.518-5.773-1.426-8.414c0.251-7.168,6.147-12.923,13.378-12.923c6.729,0,12.298,4.996,13.235,11.469v29.151
		c0,0.445,0.059,0.874,0.154,1.289v3.034h-13.771C229.56,161.675,225.628,162.717,222.165,164.535z M337.419,224.393
		c0.419-3.382,0.653-6.798,0.653-10.245V192.21c0.01-0.127,0.039-0.243,0.039-0.368c0-0.405-0.03-0.775-0.039-1.173v-0.453
		c0-0.067-0.016-0.137-0.018-0.204c-0.164-5.465-0.33-10.354-2.534-13.777c-1.964-3.05-1.689-2.265-1.689-2.265
		s0.985-0.125,3.143,0.829c5.13,2.271,8.538,7.617,8.538,13.591v21.738C345.512,216.155,342.969,222.215,337.419,224.393z
		 M391.643,204.45h-34.499v-13.576h34.499V204.45z M500.37,204.45h-15.29v-13.576h15.29V204.45z"/>
</g>
</svg>
