<?xml version="1.0" encoding="iso-8859-1"?>
<!-- Generator: Adobe Illustrator 19.0.0, SVG Export Plug-In . SVG Version: 6.00 Build 0)  -->
<svg version="1.1" id="Layer_1" xmlns="http://www.w3.org/2000/svg" xmlns:xlink="http://www.w3.org/1999/xlink" x="0px" y="0px"
	 viewBox="0 0 512 512" style="enable-background:new 0 0 512 512;" xml:space="preserve">
<g>
	<g>
		<g>
			<path style="fill:#C9E084;" d="M275.675,448.345l0.297-0.174c6.569-3.845,219.78-166.185,220.662-277.169
				c0.586-75.766-43.993-111.741-96.858-111.741c-87.83,0-122.56,83.274-124.101,87.09c-1.546-3.815-36.276-87.09-124.126-87.09
				c-52.853,0-97.424,35.975-96.856,111.741c0.885,110.984,214.124,273.324,220.673,277.169L275.675,448.345z"/>
		</g>
	</g>
	<g>
		<path style="fill:#283182;" d="M70.903,164.07c0-4.404,0.368-8.895,1.098-13.342c0.824-5.013-2.572-9.744-7.585-10.564
			c-5.018-0.839-9.742,2.57-10.563,7.586c-0.893,5.43-1.346,10.922-1.346,16.321c0,13.923,2.966,27.622,8.815,40.715
			c1.528,3.42,4.885,5.448,8.401,5.448c1.256,0,2.531-0.257,3.746-0.801c4.637-2.071,6.72-7.512,4.65-12.148
			C73.329,186.567,70.903,175.392,70.903,164.07z"/>
		<path style="fill:#283182;" d="M84.99,101.335c-4.03-3.094-9.801-2.338-12.897,1.686c-0.315,0.409-3.168,4.177-6.633,10.667
			c-2.392,4.482-0.701,10.054,3.78,12.447c1.379,0.738,2.864,1.085,4.325,1.085c3.283,0,6.464-1.764,8.119-4.864
			c2.753-5.151,4.988-8.117,5.008-8.145C89.77,110.185,89.01,104.425,84.99,101.335z"/>
		<path style="fill:#283182;" d="M502.803,273h-66.082c23.048-33.981,38.791-68.55,39.037-99.774
			c0.292-38.67-10.817-70.464-32.135-91.944c-18.872-19.018-44.436-29.07-73.92-29.07c-69.762,0-108.307,49.347-124.083,76.121
			c-15.709-26.788-54.147-76.121-124.144-76.121c-29.479,0-55.038,10.052-73.915,29.072c-21.316,21.481-32.427,53.273-32.135,91.946
			c0.23,28.889,13.821,60.707,34.203,92.289H9.194c-5.077,0-9.194,4.117-9.194,9.197s4.117,9.198,9.194,9.198h53.06
			c65.516,90.214,176.787,173.398,178.368,174.329c0.105,0.061,0.207,0.121,0.315,0.176c0.087,0.058,0.184,0.113,0.271,0.17
			c1.372,0.81,2.897,1.196,4.434,1.196c1.656,0,3.322-0.449,4.808-1.296c0.816-0.463,1.541-1.054,2.16-1.74
			c15.151-11.303,109.845-84.578,170.911-165.356h79.281c5.077,0,9.197-4.117,9.197-9.198C512,277.118,507.88,273,502.803,273z
			 M33.821,173.085c-0.258-33.655,9.01-60.918,26.8-78.844c15.338-15.461,36.385-23.634,60.854-23.634
			c81.779,0,114.246,78.008,115.592,81.331c1.4,3.47,4.765,5.745,8.511,5.75h0.013c3.733,0,7.101-2.262,8.514-5.724
			c1.359-3.32,34.129-81.356,115.598-81.356c24.474,0,45.518,8.172,60.862,23.633c17.792,17.922,27.053,45.186,26.795,78.844
			c-0.238,30.128-17.915,65.205-43.103,99.916H313.47l-16.528-26.637c-1.845-2.968-5.223-4.647-8.683-4.306
			c-3.475,0.33-6.467,2.6-7.718,5.861l-27.015,70.403l-46.719-112.308c-1.282-3.076-4.125-5.219-7.436-5.603
			c-3.36-0.388-6.569,1.055-8.516,3.755l-44.254,61.354H71.689C49.323,233.256,34.044,201.02,33.821,173.085z M245.607,439.344
			c-23.24-16.957-105.533-84.265-160.43-155.429h66.133c2.953,0,5.727-1.421,7.457-3.817l37.379-51.821l49.231,118.349
			c1.428,3.434,4.783,5.667,8.493,5.667c0.041,0,0.084,0,0.128,0c3.757-0.056,7.109-2.393,8.457-5.904l28.624-74.589l9.463,15.248
			c1.679,2.705,4.632,4.347,7.815,4.347h91.853C345.413,359.876,267.826,423.167,245.607,439.344z"/>
	</g>
</g>
</svg>
