<?xml version="1.0" encoding="iso-8859-1"?>
<!-- Generator: Adobe Illustrator 19.0.0, SVG Export Plug-In . SVG Version: 6.00 Build 0)  -->
<svg version="1.1" id="Layer_1" xmlns="http://www.w3.org/2000/svg" xmlns:xlink="http://www.w3.org/1999/xlink" x="0px" y="0px"
	 viewBox="0 0 512 512" style="enable-background:new 0 0 512 512;" xml:space="preserve">
<g>
	<g>
		<path style="fill:#C9E084;" d="M449.423,415.294c0,8.344-6.827,15.17-15.169,15.17h-24.021c-8.342,0-15.169-6.826-15.169-15.17
			V285.082c0-8.344,6.828-15.17,15.169-15.17h24.021c8.342,0,15.169,6.826,15.169,15.17V415.294z"/>
	</g>
	<g>
		<path style="fill:#C9E084;" d="M140.326,496.83c0,8.344-6.827,15.17-15.17,15.17h-24.02c-8.345,0-15.17-6.827-15.17-15.17V366.616
			c0-8.343,6.826-15.17,15.17-15.17h24.02c8.343,0,15.17,6.827,15.17,15.17V496.83z"/>
	</g>
	<g>
		<path style="fill:#283182;" d="M108.089,338.806h-6.291V171.93c0-9.764,2.008-19.221,5.971-28.105
			c1.422-3.188-0.01-6.925-3.199-8.348c-3.183-1.418-6.924,0.011-8.347,3.199c-4.691,10.514-7.067,21.703-7.067,33.254v166.876
			h-5.087c-11.851,0-21.491,9.639-21.491,21.491v130.212c0,11.85,9.64,21.492,21.491,21.492h24.02
			c11.85,0,21.491-9.642,21.491-21.492V360.296C129.579,348.444,119.939,338.806,108.089,338.806z M75.219,376.099h41.719v100.503
			H75.219V376.099z M84.068,351.446h24.02c4.879,0,8.849,3.972,8.849,8.85v3.159H75.219v-3.159
			C75.219,355.418,79.189,351.446,84.068,351.446z M108.089,499.358h-24.02c-4.879,0-8.85-3.971-8.85-8.85v-1.264h41.719v1.264
			C116.938,495.387,112.967,499.358,108.089,499.358z"/>
		<path style="fill:#283182;" d="M257.229,89.758h-55.615v-7.586c0-16.309,5.829-32.192,16.41-44.729
			c13.307-15.761,32.669-24.801,53.12-24.801h56.221c25.84,0,49.434,14.304,61.571,37.334c1.627,3.086,5.449,4.271,8.539,2.643
			c3.089-1.625,4.273-5.45,2.644-8.538C385.789,16.891,357.91,0,327.365,0h-56.221c-24.175,0-47.049,10.668-62.764,29.272
			c-0.006,0.005-0.011,0.01-0.015,0.017c-12.508,14.812-19.394,33.595-19.394,52.883v7.586h-17.644
			c-19.901,0-39.136,7.278-54.161,20.493c-2.62,2.305-2.877,6.3-0.57,8.922c2.305,2.62,6.298,2.878,8.922,0.57
			c12.715-11.185,28.985-17.343,45.81-17.343h17.644v53.728c0,45.311,33.742,82.174,75.216,82.174s75.214-33.319,75.214-74.274
			C339.401,123.075,302.537,89.758,257.229,89.758z M264.187,225.659c-34.503,0-62.573-31.19-62.573-69.531V102.4h55.615
			c38.34,0,69.531,27.646,69.531,61.628C326.759,198.012,298.689,225.659,264.187,225.659z"/>
		<path style="fill:#283182;" d="M417.187,261.06h-7.65V82.167c-0.001-1.339-0.032-2.674-0.097-4
			c-0.168-3.486-3.122-6.179-6.618-6.009c-3.486,0.169-6.177,3.133-6.007,6.618c0.053,1.129,0.08,2.264,0.081,3.396V261.06h-3.728
			c-11.85,0-21.491,9.642-21.491,21.493v130.211c0,11.851,9.641,21.493,21.491,21.493h24.02c11.85,0,21.492-9.642,21.492-21.493
			V282.553C438.678,270.702,429.037,261.06,417.187,261.06z M384.318,297.085h41.717V397.59h-41.717V297.085z M393.166,273.703
			h24.02c4.879,0,8.848,3.971,8.848,8.85v1.89h-41.717v-1.89C384.318,277.674,388.286,273.703,393.166,273.703z M417.187,421.614
			h-24.02c-4.88,0-8.849-3.971-8.849-8.85v-2.532h41.717v2.532C426.035,417.644,422.065,421.614,417.187,421.614z"/>
	</g>
</g>
</svg>
