<?xml version="1.0" encoding="iso-8859-1"?>
<!-- Generator: Adobe Illustrator 19.0.0, SVG Export Plug-In . SVG Version: 6.00 Build 0)  -->
<svg version="1.1" id="Layer_1" xmlns="http://www.w3.org/2000/svg" xmlns:xlink="http://www.w3.org/1999/xlink" x="0px" y="0px"
	 viewBox="0 0 512 512" style="enable-background:new 0 0 512 512;" xml:space="preserve">
<g>
	<g>
		<path style="fill:#FFD561;" d="M294.816,116.101c43.856,0,79.415,35.55,79.415,79.413v9.259c0,43.864-35.559,79.425-79.415,79.425
			H214.57c-43.861,0-79.419-35.561-79.419-79.425v-9.259c0-43.863,35.558-79.413,79.419-79.413H294.816z"/>
	</g>
	<g>
		<path style="fill:#283182;" d="M202.394,83.375c3.458-0.818,5.599-4.287,4.78-7.747c-0.82-3.459-4.284-5.603-7.748-4.781
			c-0.202,0.048-7.563,1.784-17.794,4.016c0.876-1.29,1.755-2.645,2.637-4.146c10.597-18.016,16.923-33.213,17.187-33.851
			c1.359-3.286-0.201-7.048-3.486-8.409c-3.284-1.354-7.048,0.202-8.41,3.484c-0.062,0.148-6.271,15.047-16.389,32.248
			c-7.15,12.158-13.42,14.984-14.974,15.524c-13.556,2.628-27.113,4.879-34.805,5.114c-25.417,0.781-50.124,10.489-67.785,26.637
			c-2.625,2.399-2.807,6.472-0.407,9.095c1.27,1.389,3.009,2.093,4.752,2.093c1.551,0,3.107-0.557,4.343-1.686
			c15.422-14.102,37.107-22.583,59.492-23.269C144.371,97.066,200.034,83.936,202.394,83.375z"/>
		<path style="fill:#283182;" d="M49.459,127.315c-2.981-1.943-6.97-1.095-8.907,1.883c-17.193,26.421-20.846,62.127-10.625,103.435
			c-10.389,11.672-45.937,58.504-21.535,129.82c0.914,2.672,3.414,4.354,6.091,4.354c0.691,0,1.394-0.112,2.085-0.349
			c3.364-1.15,5.158-4.81,4.006-8.175C-4.454,285.14,39.64,240.927,41.518,239.092c1.674-1.621,2.341-4.018,1.747-6.27
			c-10.499-39.73-7.781-72.231,8.077-96.6C53.281,133.242,52.438,129.253,49.459,127.315z"/>
		<path style="fill:#283182;" d="M201.056,147.101c-2.411,16.495-13.065,61.215-33.136,69.925c-3.261,1.416-4.757,5.206-3.343,8.468
			c1.054,2.427,3.423,3.877,5.91,3.877c0.854,0,1.723-0.171,2.558-0.533c13.277-5.762,24.191-21.184,32.441-45.838
			c5.875-17.561,8.214-33.377,8.31-34.042c0.511-3.518-1.925-6.783-5.442-7.296C204.83,141.157,201.571,143.583,201.056,147.101z"/>
		<path style="fill:#283182;" d="M365.676,454.252c-0.36,0.169-36.738,16.904-108.549,16.904
			c-60.004,0-95.779-13.295-106.054-17.737c-6.101-144.005-13.055-198.896-26.453-209.318
			c-15.715-12.222-17.581-25.409-20.163-43.661l-0.504-3.532c-0.509-3.519-3.78-5.965-7.293-5.45
			c-3.519,0.509-5.958,3.775-5.449,7.293l0.498,3.493c2.661,18.821,5.176,36.599,25.006,52.02
			c1.225,0.953,7.624,8.611,13.277,65.949c4.031,40.856,6.581,94.685,8.354,137.014c0.027,0.623,0.167,1.209,0.356,1.772
			c0.379,1.811,1.502,3.454,3.267,4.385c1.596,0.843,39.959,20.648,115.157,20.648c75.061,0,112.511-17.405,114.069-18.147
			c3.205-1.524,4.565-5.355,3.046-8.564C372.723,454.111,368.885,452.742,365.676,454.252z"/>
		<path style="fill:#283182;" d="M388.61,86.946c-7.69-0.236-21.248-2.486-34.806-5.114c-1.555-0.539-7.824-3.366-14.973-15.526
			c-10.117-17.198-16.327-32.097-16.389-32.246c-1.362-3.283-5.124-4.841-8.41-3.485c-3.284,1.361-4.844,5.124-3.486,8.41
			c0.265,0.636,6.59,15.834,17.187,33.848c0.88,1.497,1.758,2.854,2.632,4.148c-10.229-2.232-17.589-3.967-17.792-4.015
			c-3.463-0.819-6.928,1.324-7.748,4.78c-0.819,3.461,1.322,6.93,4.78,7.748c2.36,0.56,58.026,13.688,78.609,14.322
			c22.387,0.686,44.07,9.167,59.49,23.268c1.236,1.13,2.792,1.687,4.343,1.687c1.743,0,3.483-0.704,4.751-2.093
			c2.401-2.624,2.218-6.695-0.406-9.094C438.734,97.434,414.028,87.726,388.61,86.946z"/>
		<path style="fill:#283182;" d="M482.075,234.75c10.221-41.308,6.567-77.015-10.627-103.435c-1.938-2.98-5.928-3.825-8.907-1.884
			c-2.979,1.94-3.824,5.928-1.883,8.907c15.636,24.026,18.431,57.431,8.08,96.6c-0.596,2.252,0.073,4.649,1.746,6.27
			c0.464,0.45,46.078,45.736,20.942,119.192c-1.151,3.365,0.642,7.025,4.006,8.175c0.691,0.237,1.394,0.349,2.084,0.349
			c2.677,0,5.176-1.682,6.091-4.355C528.01,293.253,492.463,246.421,482.075,234.75z"/>
		<path style="fill:#283182;" d="M306.517,185.114c8.248,24.655,19.162,40.078,32.44,45.84c0.836,0.362,1.704,0.532,2.559,0.532
			c2.486,0,4.855-1.449,5.909-3.875c1.416-3.261-0.082-7.053-3.343-8.469c-20.072-8.71-30.724-53.429-33.136-69.926
			c-0.513-3.517-3.763-5.952-7.299-5.44c-3.517,0.513-5.953,3.778-5.442,7.296C298.303,151.738,300.641,167.554,306.517,185.114z"/>
		<path style="fill:#283182;" d="M415.345,193.575c-3.531-0.509-6.784,1.929-7.293,5.447l-0.506,3.544
			c-2.584,18.247-4.449,31.431-20.162,43.651c-15.032,11.691-21.741,54.734-26.592,170.578c-0.148,3.551,2.61,6.551,6.163,6.702
			c0.092,0.003,0.182,0.005,0.275,0.005c3.43,0,6.281-2.708,6.427-6.168c2.025-48.357,6.238-148.979,21.632-160.953
			c19.825-15.421,22.342-33.193,25.006-52.009l0.499-3.503C421.303,197.351,418.863,194.085,415.345,193.575z"/>
		<path style="fill:#283182;" d="M254.23,440.27c0.004,0,0.011,0,0.017,0c3.548,0,6.428-2.872,6.437-6.422l0.696-268.937
			c0.009-3.555-2.865-6.445-6.421-6.454c-0.006,0-0.012,0-0.017,0c-3.548,0-6.429,2.872-6.437,6.422l-0.697,268.937
			C247.799,437.37,250.674,440.261,254.23,440.27z"/>
	</g>
</g>
</svg>
