<?xml version="1.0" encoding="iso-8859-1"?>
<!-- Generator: Adobe Illustrator 19.0.0, SVG Export Plug-In . SVG Version: 6.00 Build 0)  -->
<svg version="1.1" id="Layer_1" xmlns="http://www.w3.org/2000/svg" xmlns:xlink="http://www.w3.org/1999/xlink" x="0px" y="0px"
	 viewBox="0 0 512 512" style="enable-background:new 0 0 512 512;" xml:space="preserve">
<g>
	<g>
		<path style="fill:#FFD561;" d="M294.408,219.643c41.538,0,75.21,33.668,75.21,75.205v8.772c0,41.536-33.672,75.212-75.21,75.212
			h-75.991c-41.534,0-75.208-33.676-75.208-75.212v-8.772c0-41.537,33.674-75.205,75.208-75.205H294.408z"/>
	</g>
	<g>
		<path style="fill:#283182;" d="M215.345,153.456c3.592,0.102,6.477-2.713,6.564-6.25c0.087-3.537-2.709-6.477-6.248-6.561
			c-1.449-0.037-19.651-0.476-39.82-0.813c2.798-2.941,5.615-6.529,8.244-11.001c10.791-18.341,17.231-33.809,17.497-34.458
			c1.356-3.272-0.2-7.02-3.472-8.374c-3.27-1.356-7.019,0.202-8.371,3.471c-0.062,0.151-6.361,15.286-16.702,32.863
			c-8.469,14.398-18.484,16.976-19.462,17.195c-11.534-0.113-21.885-0.129-28.042,0.059c-25.85,0.793-50.98,10.668-68.945,27.092
			c-2.614,2.388-2.794,6.443-0.404,9.054c1.26,1.384,2.992,2.085,4.73,2.085c1.542,0,3.094-0.555,4.321-1.678
			c15.737-14.388,37.857-23.041,60.694-23.741C146.058,151.779,214.656,153.439,215.345,153.456z"/>
		<path style="fill:#283182;" d="M50.145,182.835c-2.97-1.93-6.94-1.089-8.866,1.876c-17.5,26.888-21.209,63.241-10.785,105.307
			C19.999,301.788-16.33,349.469,8.538,422.156c0.911,2.662,3.401,4.337,6.064,4.337c0.689,0,1.387-0.113,2.078-0.349
			c3.345-1.147,5.132-4.789,3.985-8.139c-25.521-74.59,19.453-119.683,21.369-121.556c1.667-1.613,2.334-3.997,1.738-6.24
			c-10.7-40.508-7.926-73.651,8.246-98.507C53.951,188.736,53.113,184.765,50.145,182.835z"/>
		<path style="fill:#283182;" d="M481.506,288.945c14.001-56.432,0.111-91.024-14.197-110.212
			c-18.042-24.184-48.262-39.22-80.847-40.223c-4.803-0.146-12.165-0.168-20.638-0.117c-1.911-0.394-10.762-2.879-18.517-16.062
			c-10.314-17.527-16.639-32.713-16.702-32.864c-1.356-3.268-5.103-4.821-8.373-3.469c-3.27,1.355-4.826,5.102-3.47,8.373
			c0.267,0.649,6.706,16.117,17.498,34.458c2.303,3.918,4.746,7.143,7.193,9.812c-22.874,0.342-45.488,0.887-47.113,0.927
			c-3.537,0.084-6.331,3.024-6.246,6.563c0.085,3.484,2.934,6.252,6.401,6.252c0.053,0,0.107,0,0.16-0.002
			c0.524-0.012,40.447-0.981,68.34-1.167c0.155,0.011,0.307,0.023,0.462,0.023c0.104,0,0.202-0.023,0.307-0.029
			c8.393-0.051,15.65-0.031,20.303,0.113c28.715,0.882,55.243,13.994,70.969,35.075c18.52,24.832,22.389,60.357,11.189,102.738
			c-0.591,2.244,0.076,4.629,1.741,6.241c0.471,0.458,46.997,46.649,21.369,121.556c-1.147,3.35,0.638,6.992,3.987,8.139
			c0.689,0.236,1.387,0.348,2.076,0.348c2.665,0,5.152-1.675,6.064-4.335C528.33,348.392,492.001,300.715,481.506,288.945z"/>
		<path style="fill:#283182;" d="M225.95,325.264c-23.363-0.616-86.742-2.898-99.331-6.048
			c-15.141-3.783-20.943-20.293-26.464-39.867c-0.962-3.407-4.503-5.387-7.908-4.429c-3.41,0.961-5.388,4.502-4.428,7.909
			c3.621,12.836,8.633,30.596,20.889,41.146l8.58,66.12c0.416,3.233,3.174,5.586,6.346,5.586c0.273,0,0.553-0.018,0.834-0.052
			c3.51-0.456,5.984-3.671,5.526-7.179l-7.404-57.085c0.316,0.088,0.6,0.21,0.922,0.29c16.522,4.13,98.613,6.33,102.099,6.424
			c0.06,0.002,0.118,0.002,0.176,0.002c3.459,0,6.31-2.758,6.404-6.241C232.282,328.3,229.486,325.357,225.95,325.264z"/>
		<path style="fill:#283182;" d="M419.754,274.92c-3.401-0.947-6.944,1.024-7.906,4.429c-5.524,19.574-11.325,36.084-26.466,39.867
			c-12.585,3.15-75.969,5.432-99.329,6.048c-3.539,0.093-6.33,3.036-6.241,6.574c0.093,3.483,2.947,6.241,6.406,6.241
			c0.058,0,0.116,0,0.173-0.002c3.485-0.093,85.579-2.294,102.101-6.424c0.991-0.248,1.914-0.58,2.849-0.897l-7.555,58.244
			c-0.458,3.511,2.018,6.724,5.53,7.179c0.28,0.035,0.556,0.053,0.831,0.053c3.174,0,5.93-2.354,6.348-5.585l8.807-67.895
			c0.031-0.24,0.016-0.473,0.02-0.709c10.774-10.688,15.45-27.123,18.864-39.215C425.142,279.422,423.164,275.881,419.754,274.92z"
			/>
		<path style="fill:#283182;" d="M255.852,354.386c-3.541,0-6.41,2.87-6.41,6.408v37.401c0,3.541,2.869,6.41,6.41,6.41
			c3.539,0,6.406-2.87,6.406-6.41v-37.401C262.258,357.256,259.391,354.386,255.852,354.386z"/>
	</g>
</g>
</svg>
