<?xml version="1.0" encoding="iso-8859-1"?>
<!-- Generator: Adobe Illustrator 19.0.0, SVG Export Plug-In . SVG Version: 6.00 Build 0)  -->
<svg version="1.1" id="Layer_1" xmlns="http://www.w3.org/2000/svg" xmlns:xlink="http://www.w3.org/1999/xlink" x="0px" y="0px"
	 viewBox="0 0 512 512" style="enable-background:new 0 0 512 512;" xml:space="preserve">
<g>
	<g>
		<path style="fill:#FFD561;" d="M357.702,158.393c0-23.432-5.104-45.658-14.204-65.688c-14.922-5.22-30.95-8.09-47.648-8.09
			c-79.723,0-144.343,64.623-144.343,144.342c0,32.931,11.046,63.27,29.613,87.555c5.744,0.63,11.572,0.977,17.482,0.977
			C286.468,317.49,357.702,246.261,357.702,158.393z"/>
	</g>
	<g>
		<path style="fill:#283182;" d="M398.939,94.674c4.106,0.124,7.772-3.256,7.879-7.506c0.106-4.25-3.257-7.782-7.507-7.883
			c-2.166-0.054-30.288-0.735-60.606-1.227c4.7-4.524,9.525-10.372,13.985-17.954c15.487-26.334,24.727-48.527,25.113-49.458
			c1.621-3.928-0.241-8.432-4.173-10.057c-3.933-1.631-8.43,0.24-10.056,4.169c-0.092,0.218-9.205,22.123-24.157,47.539
			c-11.759,19.987-25.61,24.596-28.594,25.383c-16.974-0.172-32.258-0.199-41.277,0.079c-36.891,1.131-72.738,15.211-98.349,38.63
			c-3.141,2.871-3.356,7.739-0.487,10.877c1.52,1.662,3.597,2.504,5.683,2.504c1.857,0,3.712-0.667,5.189-2.018
			c22.941-20.972,55.172-33.584,88.435-34.604C299.05,92.264,397.941,94.65,398.939,94.674z"/>
		<path style="fill:#283182;" d="M160.035,139.826c-3.563-2.317-8.327-1.311-10.653,2.252
			c-25.081,38.545-30.287,90.801-15.127,151.332c-6.021,6.711-19.41,23.33-29.869,48.608c-12.535,30.285-23.057,79.302-2,140.836
			c1.095,3.196,4.081,5.207,7.283,5.207c0.825,0,1.665-0.134,2.492-0.416c4.021-1.376,6.168-5.753,4.789-9.776
			c-37.109-108.46,28.378-174.009,31.174-176.735c2-1.938,2.798-4.805,2.087-7.499c-15.315-57.976-11.14-107.479,12.078-143.159
			C164.606,146.912,163.598,142.144,160.035,139.826z"/>
		<path style="fill:#283182;" d="M414.127,345.284c-33.7-0.888-125.172-4.189-143.445-8.757c-24.449-6.11-32.991-36.4-39.234-58.516
			c-1.158-4.093-5.411-6.475-9.497-5.319c-4.094,1.153-6.475,5.408-5.322,9.5c5.202,18.43,12.43,43.998,30.071,58.882l22.274,164.26
			c0.521,3.863,3.829,6.667,7.621,6.667c0.343,0,0.69-0.024,1.045-0.07c4.212-0.572,7.165-4.452,6.593-8.665l-20.717-152.796
			c1.118,0.363,2.255,0.702,3.43,0.995c23.646,5.911,141.763,9.077,146.781,9.209c0.072,0.001,0.135,0.005,0.207,0.005
			c4.159,0,7.58-3.317,7.69-7.496C421.735,348.931,418.382,345.395,414.127,345.284z"/>
	</g>
</g>
</svg>
