<?xml version="1.0" encoding="iso-8859-1"?>
<!-- Generator: Adobe Illustrator 19.0.0, SVG Export Plug-In . SVG Version: 6.00 Build 0)  -->
<svg version="1.1" id="Layer_1" xmlns="http://www.w3.org/2000/svg" xmlns:xlink="http://www.w3.org/1999/xlink" x="0px" y="0px"
	 viewBox="0 0 512 512" style="enable-background:new 0 0 512 512;" xml:space="preserve">
<g>
	<g>
		<path style="fill:#FFD561;" d="M367.78,416.751c0,50.482-40.926,91.411-91.42,91.411c-50.481,0-91.411-40.929-91.411-91.411
			c0-50.489,40.93-91.416,91.411-91.416C326.854,325.335,367.78,366.262,367.78,416.751z"/>
	</g>
	<g>
		<path style="fill:#283182;" d="M253.117,336.594c-13.591,0-26.881,3.835-38.438,11.091c-10.587,6.652-19.301,15.949-25.2,26.887
			c-2.004,3.712-0.617,8.346,3.097,10.347c3.713,2.006,8.346,0.614,10.346-3.098c4.65-8.62,11.527-15.951,19.88-21.204
			c9.12-5.723,19.601-8.747,30.315-8.747c19.81,0,37.917,10,48.435,26.747c5.726,9.121,8.752,19.6,8.752,30.311
			c0,19.81-10.003,37.914-26.756,48.434c-9.12,5.725-19.6,8.757-30.313,8.757c-19.804,0-37.908-10.004-48.427-26.754
			c-4.06-6.47-6.747-13.532-7.986-20.994c-0.689-4.159-4.615-6.978-8.785-6.28c-4.161,0.688-6.973,4.624-6.282,8.783
			c1.571,9.468,4.975,18.418,10.116,26.613c13.334,21.23,36.272,33.904,61.363,33.904c13.589,0,26.881-3.835,38.434-11.091
			c21.233-13.329,33.908-36.274,33.908-61.37c0-13.589-3.835-26.875-11.091-38.429C301.157,349.266,278.217,336.594,253.117,336.594
			z"/>
		<path style="fill:#283182;" d="M409.005,86.943L370.516,4.946c-0.033-0.071-0.077-0.132-0.112-0.201
			C369.257,1.961,366.51,0,363.294,0H148.798c-2.78,0-5.194,1.479-6.544,3.674c-0.293,0.397-0.562,0.815-0.777,1.271l-38.482,81.998
			c-1.009,2.155-0.959,4.655,0.137,6.767l94.703,182.277c-5.614,7.393-8.711,16.67-8.711,26.443v25.982
			c-23.714,18.889-38.955,47.98-38.955,80.582c0,56.798,46.21,103.006,103.009,103.006c56.798,0,103.007-46.208,103.007-103.006
			c0-29.744-12.686-56.566-32.914-75.389V302.43c0-9.95-3.172-19.323-8.943-26.764L408.869,93.71
			C409.965,91.598,410.016,89.098,409.005,86.943z M320.072,72.96c-0.267-0.028-0.528-0.08-0.803-0.08H217.15
			c-4.218,0-7.637,3.421-7.637,7.637c0,4.22,3.419,7.639,7.637,7.639h94.744l-56.604,105.17L160.795,15.273h190.326L320.072,72.96z
			 M148.809,25.273l136.374,256.959h-66.892L118.424,90.017L148.809,25.273z M340.911,408.994c0,48.375-39.358,87.732-87.734,87.732
			c-48.378,0-87.736-39.358-87.736-87.732c0-48.379,39.358-87.735,87.736-87.735C301.553,321.259,340.911,360.615,340.911,408.994z
			 M307.997,302.43v19.418c-15.889-10.03-34.681-15.862-54.819-15.862c-17.637,0-34.25,4.463-48.78,12.308V302.43
			c0-3.613,0.632-7.103,1.816-10.314l0.661,1.273c1.315,2.531,3.926,4.119,6.778,4.119h84.229c0.071,0,0.136-0.026,0.207-0.026
			c0.081,0.002,0.164,0.028,0.246,0.028c2.759-0.002,5.424-1.503,6.783-4.121l0.895-1.722
			C307.303,294.994,307.997,298.635,307.997,302.43z M298.044,273.882L263.9,209.547l99.236-184.373l30.439,64.844L298.044,273.882z
			"/>
	</g>
</g>
</svg>
