<?xml version="1.0" encoding="iso-8859-1"?>
<!-- Generator: Adobe Illustrator 19.0.0, SVG Export Plug-In . SVG Version: 6.00 Build 0)  -->
<svg version="1.1" id="Layer_1" xmlns="http://www.w3.org/2000/svg" xmlns:xlink="http://www.w3.org/1999/xlink" x="0px" y="0px"
	 viewBox="0 0 512 512" style="enable-background:new 0 0 512 512;" xml:space="preserve">
<g>
	<g>
		<path style="fill:#C9E084;" d="M354.601,121.148c0,41.765-33.864,75.629-75.627,75.629c-41.767,0-75.631-33.864-75.631-75.629
			c0-41.768,33.864-75.629,75.631-75.629C320.737,45.519,354.601,79.381,354.601,121.148z"/>
	</g>
	<g>
		<path style="fill:#283182;" d="M443.341,382.351c-0.022-59.544-7.293-135.859-18.988-199.246
			c-10.279-55.735-28.9-129.095-59.236-162.089C353.93,8.852,330.439,0.82,303.808,0.058c-28.01-0.804-52.337,6.737-66.722,20.686
			c-7.739,7.504-9.895,18.671-10.494,24.955c-28.069,13.11-47.573,41.596-47.573,74.565c0,45.361,36.904,82.265,82.265,82.265
			c9.202,0,18.044-1.542,26.312-4.341l-10.184,87.111c-13.792-21.761-38.074-36.25-65.691-36.25
			c-19.991,0-38.999,7.643-53.364,21.227c-18.86-27.052-50.016-43.535-83.263-43.535c-3.665,0-6.633,2.97-6.633,6.636
			c0,3.665,2.968,6.633,6.633,6.633c31.462,0,60.764,16.984,76.48,44.316c1.077,1.876,3.003,3.111,5.159,3.3
			c2.139,0.202,4.271-0.677,5.665-2.334c12.296-14.6,30.275-22.975,49.324-22.975c35.549,0,64.471,28.92,64.471,64.466
			c0,3.665,2.968,6.636,6.633,6.636c3.665,0,6.633-2.97,6.633-6.636c0-5.483-0.578-10.833-1.663-15.996l13.896-118.912
			c24.962-14.139,41.854-40.934,41.854-71.612c0-45.361-36.904-82.262-82.262-82.262c-7.016,0-13.827,0.888-20.332,2.547
			c0.947-3.641,2.566-7.561,5.37-10.277c11.658-11.306,32.932-17.644,57.11-16.951c22.473,0.645,43.342,7.348,51.921,16.678
			c48.757,53.026,74.722,238.868,74.722,352.639c0,0.213,0.013,0.426,0.032,0.636c0.032,0.36,3.233,36.378-19.062,42.749
			c-0.126,0.035-0.235,0.1-0.356,0.141c-0.254,0.089-0.508,0.18-0.751,0.3c-0.171,0.085-0.33,0.187-0.491,0.284
			c-0.204,0.124-0.408,0.245-0.597,0.391c-0.169,0.128-0.319,0.273-0.473,0.417c-0.159,0.145-0.319,0.289-0.465,0.454
			c-0.161,0.182-0.297,0.38-0.439,0.578c-0.085,0.121-0.189,0.223-0.267,0.354c-9.918,16.229-22.58,29.871-37.642,40.549
			c-2.986,2.115-3.691,6.258-1.572,9.248c1.294,1.826,3.337,2.797,5.417,2.797c1.327,0,2.664-0.395,3.832-1.22
			c15.866-11.252,29.265-25.504,39.92-42.338c12.531-4.566,20.997-15.584,24.562-32.038
			C444.155,394.68,443.503,384.394,443.341,382.351z M330.276,120.264c0,38.046-30.95,68.994-68.994,68.994
			c-38.048,0-68.996-30.948-68.996-68.994c0-28.759,17.69-53.453,42.758-63.797c0.3-0.098,0.591-0.206,0.868-0.343
			c7.858-3.12,16.413-4.853,25.37-4.853C299.326,51.271,330.276,82.219,330.276,120.264z"/>
		<path style="fill:#283182;" d="M232.504,104.559c-1.759,3.216-0.577,7.25,2.636,9.002c3.22,1.759,7.248,0.58,9.004-2.636
			c3.429-6.275,9.99-10.173,17.132-10.173c0.002,0,0.002,0,0.006,0c10.713,0,19.466,8.718,19.509,19.436c0,0.006,0,0.015,0,0.022
			c0,0.017,0,0.035,0,0.054c0,10.757-8.75,19.509-19.509,19.509c-4.959,0-9.693-1.863-13.317-5.246
			c-2.673-2.497-6.879-2.354-9.376,0.326c-2.497,2.681-2.352,6.876,0.328,9.376c6.091,5.682,14.033,8.813,22.365,8.813
			c18.074,0,32.778-14.704,32.778-32.778v-0.1c0-0.011,0-0.022,0-0.035c-0.074-18-14.778-32.646-32.776-32.646h-0.011
			C249.284,87.484,238.26,94.028,232.504,104.559z"/>
		<path style="fill:#283182;" d="M315.856,493.216c-15.329,3.661-31.875,5.515-49.172,5.515c-13.056,0-26.338-1.053-39.472-3.131
			c-9.958-1.576-19.613-4.256-28.696-7.96c-18.005-7.348-33.199-18.426-43.941-32.044c-1.17-1.485-2.91-2.397-4.794-2.516
			c-1.867-0.098-3.728,0.571-5.07,1.895c-18.17,17.889-41.186,28.179-70.359,31.465c-3.641,0.412-6.26,3.693-5.852,7.335
			c0.41,3.641,3.678,6.264,7.333,5.852c29.543-3.326,53.488-13.271,72.96-30.34c11.706,12.909,27.026,23.426,44.712,30.637
			c10.027,4.089,20.669,7.044,31.634,8.783c13.818,2.185,27.797,3.294,41.546,3.294c18.335,0,35.916-1.976,52.255-5.882
			c3.565-0.849,5.76-4.425,4.912-7.993C323.002,494.56,319.428,492.358,315.856,493.216z"/>
	</g>
</g>
</svg>
