<?xml version="1.0" encoding="iso-8859-1"?>
<!-- Generator: Adobe Illustrator 19.0.0, SVG Export Plug-In . SVG Version: 6.00 Build 0)  -->
<svg version="1.1" id="Layer_1" xmlns="http://www.w3.org/2000/svg" xmlns:xlink="http://www.w3.org/1999/xlink" x="0px" y="0px"
	 viewBox="0 0 512 512" style="enable-background:new 0 0 512 512;" xml:space="preserve">
<g>
	<g>
		<g>
			<path style="fill:#FFD561;" d="M393.62,372.909c0,1.51-1.237,2.75-2.75,2.75h-39.263c-1.512,0-2.751-1.24-2.751-2.75v-39.266
				c0-1.51,1.239-2.749,2.751-2.749h39.263c1.512,0,2.75,1.24,2.75,2.749V372.909z"/>
		</g>
	</g>
	<g>
		<g>
			<path style="fill:#FFD561;" d="M392.246,272.07c0,1.512-1.239,2.749-2.751,2.749h-39.265c-1.511,0-2.749-1.237-2.749-2.749
				v-39.265c0-1.513,1.238-2.751,2.749-2.751h39.265c1.512,0,2.751,1.237,2.751,2.751V272.07z"/>
		</g>
	</g>
	<g>
		<path style="fill:#283182;" d="M387.662,232.974c0-5.307-4.318-9.624-9.626-9.624h-39.265c-5.307,0-9.626,4.317-9.626,9.624
			v39.265c0,5.308,4.318,9.626,9.626,9.626h39.265c5.307,0,9.626-4.318,9.626-9.626V232.974z M373.91,268.115h-31.014v-31.016
			h31.014V268.115z"/>
		<path style="fill:#283182;" d="M378.036,324.98h-39.265c-5.307,0-9.626,4.318-9.626,9.628v39.263c0,5.308,4.318,9.626,9.626,9.626
			h39.265c5.307,0,9.626-4.318,9.626-9.626v-39.263C387.662,329.298,383.343,324.98,378.036,324.98z M373.91,369.747h-31.014
			v-31.015h31.014V369.747z"/>
		<path style="fill:#283182;" d="M293.766,147.157c-7.034,0-10.337-1.322-14.161-2.851c-4.495-1.797-9.589-3.837-19.272-3.837
			c-9.683,0-14.778,2.039-19.271,3.837c-3.829,1.529-7.133,2.851-14.168,2.851c-7.027,0-10.171-1.259-14.15-2.851
			c-4.491-1.797-9.584-3.837-19.265-3.837c-9.68,0-14.772,2.04-19.265,3.837c-3.823,1.529-7.125,2.851-14.156,2.851
			c-7.031,0-10.333-1.322-14.156-2.851c-4.491-1.798-9.581-3.837-19.258-3.837c-3.798,0-6.875,3.078-6.875,6.876
			c0,3.797,3.077,6.874,6.875,6.874c7.027,0,10.171,1.261,14.149,2.853c4.494,1.797,9.586,3.836,19.266,3.836
			c9.678,0,14.773-2.039,19.264-3.836c3.825-1.529,7.125-2.853,14.156-2.853c7.031,0,10.334,1.323,14.156,2.853
			c4.492,1.799,9.583,3.836,19.259,3.836c9.684,0,14.778-2.036,19.273-3.836c3.826-1.529,7.13-2.853,14.166-2.853
			c7.034,0,10.339,1.323,14.163,2.853c4.495,1.799,9.587,3.836,19.27,3.836c3.798,0,6.875-3.077,6.875-6.874
			C300.641,150.235,297.564,147.157,293.766,147.157z"/>
		<path style="fill:#283182;" d="M126.644,256.139c7.027,0,10.171,1.258,14.149,2.851c4.494,1.798,9.586,3.837,19.266,3.837
			c9.678,0,14.773-2.039,19.264-3.837c3.825-1.532,7.125-2.851,14.156-2.851c7.031,0,10.334,1.319,14.156,2.851
			c4.492,1.798,9.583,3.837,19.259,3.837c9.684,0,14.777-2.039,19.273-3.837l0.508-0.202c3.528-1.409,5.247-5.406,3.842-8.931
			c-1.407-3.525-5.401-5.246-8.933-3.842l-0.524,0.21c-3.827,1.529-7.13,2.851-14.166,2.851c-7.027,0-10.171-1.256-14.15-2.851
			c-4.491-1.798-9.584-3.836-19.265-3.836c-9.68,0-14.772,2.038-19.265,3.836c-3.823,1.529-7.125,2.851-14.156,2.851
			c-7.031,0-10.333-1.322-14.156-2.851c-4.491-1.798-9.581-3.836-19.258-3.836c-3.798,0-6.875,3.077-6.875,6.874
			C119.769,253.061,122.846,256.139,126.644,256.139z"/>
		<path style="fill:#283182;" d="M293.766,249.076c-6.279,0-9.495-1.038-12.5-2.194c-3.542-1.371-7.523,0.4-8.886,3.945
			c-1.364,3.543,0.402,7.522,3.946,8.887c4.199,1.617,9.218,3.113,17.439,3.113c3.798,0,6.875-3.078,6.875-6.876
			C300.641,252.154,297.564,249.076,293.766,249.076z"/>
		<path style="fill:#283182;" d="M126.644,357.774c7.027,0,10.171,1.254,14.149,2.853c4.494,1.797,9.586,3.835,19.266,3.835
			c9.678,0,14.773-2.038,19.264-3.835c3.825-1.532,7.125-2.853,14.156-2.853c7.031,0,10.334,1.321,14.156,2.853
			c4.492,1.797,9.583,3.835,19.259,3.835c9.684,0,14.778-2.038,19.273-3.835c3.826-1.532,7.13-2.853,14.166-2.853
			c7.034,0,10.339,1.321,14.163,2.853c4.495,1.797,9.587,3.835,19.27,3.835c3.798,0,6.875-3.078,6.875-6.874
			c0-3.798-3.077-6.876-6.875-6.876c-7.034,0-10.337-1.323-14.161-2.852c-4.495-1.795-9.589-3.835-19.272-3.835
			c-9.683,0-14.778,2.04-19.271,3.835c-3.829,1.529-7.133,2.852-14.168,2.852c-7.027,0-10.171-1.257-14.15-2.852
			c-4.491-1.795-9.584-3.835-19.265-3.835c-9.68,0-14.772,2.04-19.265,3.835c-3.823,1.529-7.125,2.852-14.156,2.852
			c-7.031,0-10.333-1.323-14.156-2.852c-4.491-1.795-9.581-3.835-19.258-3.835c-3.798,0-6.875,3.076-6.875,6.876
			C119.769,354.699,122.846,357.774,126.644,357.774z"/>
		<path style="fill:#283182;" d="M428.843,442.711V250.738c0-3.799-3.078-6.876-6.876-6.876c-3.799,0-6.875,3.077-6.875,6.876
			v193.333c0,5.742-4.67,10.411-10.409,10.411H203.587c-3.798,0-6.875,3.078-6.875,6.876c0,3.795,3.077,6.873,6.875,6.873h201.096
			c3.731,0,7.254-0.876,10.414-2.393v4.085c0,5.742-4.672,10.416-10.414,10.416H107.318c-5.742,0-10.415-4.674-10.415-10.416v-4.082
			c3.16,1.517,6.682,2.391,10.415,2.391h44.356c3.798,0,6.876-3.078,6.876-6.873c0-3.798-3.079-6.876-6.876-6.876h-44.356
			c-5.742,0-10.415-4.669-10.415-10.411v-1.313V45.28c0-5.743,4.673-10.416,10.415-10.416h30.341v10.059
			c0,3.797,3.077,6.875,6.875,6.875c3.798,0,6.875-3.078,6.875-6.875V34.864h60.266v10.059c0,3.797,3.078,6.875,6.875,6.875
			c3.797,0,6.876-3.078,6.876-6.875V34.864h60.265v10.059c0,3.797,3.077,6.875,6.875,6.875c3.799,0,6.875-3.078,6.875-6.875V34.864
			h60.26v10.059c0,3.797,3.078,6.875,6.876,6.875c3.798,0,6.875-3.078,6.875-6.875V34.864h31.232
			c5.738,0,10.409,4.673,10.409,10.416v158.659c0,3.797,3.076,6.874,6.875,6.874c3.798,0,6.876-3.077,6.876-6.874V45.28
			c0-13.325-10.838-24.166-24.16-24.166h-31.232V6.875c0-3.798-3.077-6.875-6.875-6.875c-3.798,0-6.876,3.077-6.876,6.875v14.239
			h-60.26V6.875c0-3.798-3.076-6.875-6.875-6.875c-3.798,0-6.875,3.077-6.875,6.875v14.239h-60.265V6.875
			c0-3.798-3.08-6.875-6.876-6.875c-3.796,0-6.875,3.077-6.875,6.875v14.239h-60.266V6.875c0-3.798-3.077-6.875-6.875-6.875
			c-3.798,0-6.875,3.077-6.875,6.875v14.239h-30.341c-13.325,0-24.165,10.841-24.165,24.166v397.477v1.313v16.598v9.255v17.913
			c0,13.323,10.84,24.163,24.165,24.163h297.366c13.324,0,24.163-10.841,24.163-24.163v-17.913v-9.255v-17.911
			C428.847,442.74,428.843,442.728,428.843,442.711z M404.684,498.25H107.318c-4.192,0-7.792-2.506-9.442-6.083
			c2.903,1.237,6.093,1.922,9.442,1.922h297.366c3.349,0,6.539-0.685,9.44-1.922C412.474,495.744,408.875,498.25,404.684,498.25z"/>
		<path style="fill:#283182;" d="M389.279,82.189c-3.747-1.393-7.913,0.519-9.308,4.267l-20.126,54.189l-8.564-17.393
			c-1.766-3.587-6.102-5.065-9.693-3.297c-3.586,1.766-5.063,6.107-3.297,9.693l15.992,32.476c1.223,2.482,3.746,4.041,6.493,4.041
			c0.123,0,0.246-0.004,0.37-0.009c2.888-0.147,5.411-1.998,6.418-4.71l25.981-69.949C394.937,87.75,393.027,83.583,389.279,82.189z
			"/>
	</g>
</g>
</svg>
