<?xml version="1.0" encoding="iso-8859-1"?>
<!-- Generator: Adobe Illustrator 19.0.0, SVG Export Plug-In . SVG Version: 6.00 Build 0)  -->
<svg version="1.1" id="Layer_1" xmlns="http://www.w3.org/2000/svg" xmlns:xlink="http://www.w3.org/1999/xlink" x="0px" y="0px"
	 viewBox="0 0 512 512" style="enable-background:new 0 0 512 512;" xml:space="preserve">
<g>
	<g>
		<path style="fill:#FFD561;" d="M480.956,404.892c0,11.754-9.531,21.284-21.284,21.284H52.332
			c-11.756,0-21.287-9.531-21.287-21.284l0,0c0-11.757,9.531-21.286,21.287-21.286h407.34
			C471.425,383.606,480.956,393.135,480.956,404.892L480.956,404.892z"/>
	</g>
	<g>
		<path style="fill:#283182;" d="M409.531,401.657c0,8.751,7.122,15.871,15.874,15.871c8.751,0,15.87-7.12,15.87-15.871
			c0-8.752-7.119-15.871-15.87-15.871C416.653,385.786,409.531,392.905,409.531,401.657z M429.521,401.657
			c0,2.269-1.846,4.115-4.116,4.115c-2.271,0-4.12-1.847-4.12-4.115c0-2.271,1.849-4.119,4.12-4.119
			C427.676,397.539,429.521,399.386,429.521,401.657z"/>
		<path style="fill:#283182;" d="M510.181,80.086l-2.821-5.724c-2.942-5.971-9.164-9.828-15.848-9.828
			c-2.675,0-5.359,0.625-7.761,1.811l-103.958,51.249c-4.212,2.076-7.368,5.681-8.884,10.148c-1.518,4.469-1.21,9.25,0.867,13.461
			l2.819,5.723c2.945,5.971,9.165,9.829,15.85,9.829c2.714,0,5.325-0.61,7.763-1.811l27.537-13.574l-33.889,102.776
			c-1.018,3.083,0.659,6.405,3.741,7.421c0.611,0.203,1.231,0.298,1.841,0.298c2.469,0,4.766-1.567,5.579-4.039l37.505-113.742
			l9.924-4.892l-78.499,242.253h-9.694l31.956-96.907c1.017-3.081-0.658-6.404-3.741-7.42c-3.076-1.021-6.404,0.655-7.421,3.741
			l-32.94,99.887c-0.076,0.232-0.108,0.465-0.155,0.698H30.211C13.553,371.446,0,385,0,401.657c0,15.783,12.173,28.757,27.62,30.078
			v9.854c0,3.246,2.631,5.876,5.877,5.876h400.778c3.246,0,5.877-2.63,5.877-5.876v-10.506
			c13.975-2.647,24.583-14.931,24.583-29.664c0-16.186-12.805-29.402-28.812-30.141l-16.469-108.312l45.698-141.022l37.013-18.246
			c4.212-2.076,7.368-5.68,8.884-10.15C512.568,89.081,512.26,84.301,510.181,80.086z M452.98,401.419
			c0,10.176-8.28,18.454-18.457,18.454h-58.096h-4.356H160.304c-3.246,0-5.877,2.631-5.877,5.877c0,3.247,2.631,5.878,5.877,5.878
			h211.768h4.356h51.969v4.083H39.375v-3.845h92.207c3.247,0,5.877-2.631,5.877-5.877c0-3.246-2.63-5.877-5.877-5.877H30.211
			c-10.178,0-18.457-8.28-18.457-18.455s8.279-18.457,18.457-18.457h373.63c3.246,0,5.878-2.631,5.878-5.877
			c0-3.246-2.632-5.878-5.878-5.878h-19.54l27.059-83.505l12.751,83.86c-1.973,0.948-3.346,2.948-3.346,5.284
			c0,3.247,2.63,5.878,5.876,5.878h4.201c0.004,0,0.007,0.001,0.012,0.001c0.004,0,0.009-0.001,0.013-0.001h3.656
			C444.701,382.963,452.98,391.243,452.98,401.419z M499.919,89.769c-0.508,1.495-1.556,2.699-2.953,3.387l-26.873,13.246
			l-14.595,7.195l-9.957,4.908l-14.639,7.216l-37.895,18.68c-2.828,1.393-6.5,0.108-7.87-2.672l-2.82-5.723
			c-0.688-1.397-0.787-2.989-0.279-4.485c0.507-1.495,1.555-2.698,2.952-3.385l103.957-51.251c0.806-0.396,1.669-0.597,2.563-0.597
			c2.243,0,4.326,1.285,5.307,3.272l2.821,5.724C500.329,86.682,500.427,88.274,499.919,89.769z"/>
		<path style="fill:#283182;" d="M35.513,385.786c-8.754,0-15.876,7.119-15.876,15.871c0,8.751,7.121,15.871,15.876,15.871
			c8.749,0,15.869-7.12,15.869-15.871C51.382,392.905,44.262,385.786,35.513,385.786z M35.513,405.773
			c-2.273,0-4.122-1.847-4.122-4.115c0-2.271,1.849-4.119,4.122-4.119c2.269,0,4.114,1.848,4.114,4.119
			C39.627,403.926,37.782,405.773,35.513,405.773z"/>
	</g>
</g>
</svg>
