<?xml version="1.0" encoding="iso-8859-1"?>
<!-- Generator: Adobe Illustrator 19.0.0, SVG Export Plug-In . SVG Version: 6.00 Build 0)  -->
<svg version="1.1" id="Layer_1" xmlns="http://www.w3.org/2000/svg" xmlns:xlink="http://www.w3.org/1999/xlink" x="0px" y="0px"
	 viewBox="0 0 512 512" style="enable-background:new 0 0 512 512;" xml:space="preserve">
<g>
	<g>
		<path style="fill:#C9E084;" d="M416.455,372.924c0,62.558-50.709,113.271-113.271,113.271
			c-62.556,0-113.269-50.713-113.269-113.271c0-62.556,50.713-113.269,113.269-113.269
			C365.746,259.655,416.455,310.369,416.455,372.924z"/>
	</g>
	<g>
		<path style="fill:#283182;" d="M290.283,192.876v-13.199c10.078-1.19,17.931-9.772,17.931-20.169v-15.497
			c0.412-0.178,0.814-0.386,1.192-0.662c20.306-14.914,32.43-38.84,32.43-63.999c0-43.754-35.593-79.35-79.349-79.35
			c-43.752,0-79.348,35.595-79.348,79.35c0,25.294,11.645,48.491,31.946,63.636c0.521,0.39,1.091,0.653,1.676,0.85v15.673
			c0,10.396,7.853,18.979,17.931,20.169v13.199c-34.376,6.019-65.019,22.98-88.206,47.169l-10.833-10.831l6.684-6.684
			c5.667-5.674,5.663-14.901-0.008-20.57l-7.319-7.322c-2.739-2.742-6.393-4.252-10.289-4.252c-3.891,0-7.544,1.51-10.281,4.252
			l-21.464,21.459c-2.741,2.741-4.254,6.395-4.254,10.288c0,3.895,1.513,7.549,4.254,10.288l7.321,7.323
			c2.743,2.739,6.396,4.247,10.289,4.247s7.546-1.509,10.281-4.248l6.332-6.328l11.29,11.291
			c-22.973,27.81-36.789,63.448-36.789,102.252C101.7,439.87,173.827,512,262.487,512s160.791-72.13,160.791-160.789
			C423.278,272.033,365.734,206.086,290.283,192.876z M112.413,235.544c-0.649,0.649-1.423,0.747-1.827,0.747
			c-0.406,0-1.184-0.098-1.837-0.748l-7.323-7.324c-0.649-0.651-0.747-1.427-0.747-1.833c0-0.405,0.098-1.181,0.747-1.833
			l21.464-21.463c0.651-0.651,1.429-0.748,1.831-0.748c0.408,0,1.184,0.097,1.835,0.748l7.323,7.323
			c0.995,0.994,0.995,2.675,0.004,3.666L112.413,235.544z M195.096,79.35c0-37.162,30.23-67.395,67.391-67.395
			c37.165,0,67.395,30.233,67.395,67.395c0,18.812-7.988,36.809-21.667,49.492v-11.773c0-11.207-9.117-20.323-20.321-20.323h-50.81
			c-11.203,0-20.323,9.115-20.323,20.323v11.775C202.919,116.113,195.096,98.44,195.096,79.35z M228.716,159.508v-42.439
			c0-4.614,3.754-8.368,8.368-8.368h50.81c4.612,0,8.366,3.754,8.366,8.368v42.439c0,4.613-3.754,8.369-8.366,8.369h-50.81
			C232.47,167.877,228.716,164.121,228.716,159.508z M246.65,179.83h31.679v11.378c-5.215-0.512-10.496-0.788-15.841-0.788
			c-5.341,0-10.623,0.275-15.837,0.788V179.83z M262.487,500.046c-82.067,0-148.834-66.768-148.834-148.835
			c0-82.067,66.767-148.834,148.834-148.834c82.07,0,148.836,66.767,148.836,148.834
			C411.323,433.278,344.557,500.046,262.487,500.046z"/>
		<path style="fill:#283182;" d="M262.487,214.031c-75.638,0-137.177,61.539-137.177,137.18S186.849,488.39,262.487,488.39
			c75.642,0,137.181-61.538,137.181-137.179S338.129,214.031,262.487,214.031z M262.487,476.436
			c-69.049,0-125.224-56.176-125.224-125.225c0-69.05,56.175-125.224,125.224-125.224c69.052,0,125.226,56.173,125.226,125.224
			C387.713,420.259,331.539,476.436,262.487,476.436z"/>
		<path style="fill:#283182;" d="M268.347,327.647c0.078-0.384,0.119-0.781,0.119-1.188v-83.682c0-3.302-2.677-5.979-5.978-5.979
			c-3.298,0-5.976,2.677-5.976,5.979v83.682c0,0.407,0.042,0.805,0.121,1.19c-10.576,2.634-18.448,12.184-18.448,23.562
			c0,13.402,10.904,24.306,24.309,24.306c13.404,0,24.308-10.904,24.308-24.306C286.8,339.829,278.925,330.277,268.347,327.647z
			 M262.493,363.563c-6.812,0-12.357-5.541-12.357-12.352c0-6.81,5.545-12.353,12.357-12.353c6.813,0,12.351,5.542,12.351,12.353
			C274.844,358.021,269.305,363.563,262.493,363.563z"/>
	</g>
</g>
</svg>
