<?xml version="1.0" encoding="iso-8859-1"?>
<!-- Generator: Adobe Illustrator 19.0.0, SVG Export Plug-In . SVG Version: 6.00 Build 0)  -->
<svg version="1.1" id="Layer_1" xmlns="http://www.w3.org/2000/svg" xmlns:xlink="http://www.w3.org/1999/xlink" x="0px" y="0px"
	 viewBox="0 0 512 512" style="enable-background:new 0 0 512 512;" xml:space="preserve">
<g>
	<g>
		<path style="fill:#FFD561;" d="M354.471,369.028c0,45.941-37.246,83.187-83.186,83.187c-45.944,0-83.189-37.246-83.189-83.187
			c0-45.943,37.246-83.187,83.189-83.187C317.225,285.841,354.471,323.086,354.471,369.028z"/>
	</g>
	<g>
		<path style="fill:#283182;" d="M458.42,116.203c-10.035-45.705-34.553-76.926-74.955-95.445C352.564,6.596,312.294,0,256.735,0
			c-40.031,0-70.644,2.975-96.349,9.361C100.743,24.189,65.66,59.136,53.134,116.203c-8.734,39.791,4.181,82.798,16.55,111.869
			c9.854,23.151,21.893,43.256,28.04,52.088c-12.706,25.087-19.406,53.138-19.406,81.408c0,52.86,23.237,102.721,62.946,136.804
			H73.2c-3.763,0-6.813,3.05-6.813,6.814c0,3.764,3.05,6.813,6.813,6.813h361.101c3.764,0,6.813-3.049,6.813-6.813
			c0-3.764-3.049-6.814-6.813-6.814h-58.376c39.709-34.083,62.946-83.944,62.946-136.804c0-29.722-7.391-59.077-21.413-85.18
			c5.384-7.959,17.093-26.636,26.281-48.452C460.842,187.319,465.78,149.725,458.42,116.203z M66.443,119.125
			c11.465-52.222,42.361-82.898,97.231-96.54c24.598-6.111,54.169-8.958,93.062-8.958c81.697,0,167.966,12.533,188.374,105.497
			c2.191,9.976,3.154,20.391,2.939,31.201h-52.058c0.213-6.77-0.264-13.513-1.699-20.047
			c-8.039-36.615-23.271-64.624-137.556-64.624c-116.061,0-131.435,28.009-139.474,64.624c-1.433,6.526-1.906,13.272-1.687,20.047
			H64.083C63.572,139.759,64.221,129.248,66.443,119.125z M362.567,214.329c-30.521-21.641-66.3-33.038-103.973-33.038
			c-38.948,0-77.006,12.723-108.056,35.977c-13.888-25.318-25.502-58.85-19.966-84.065c5.819-26.508,11.837-53.921,126.164-53.921
			c112.41,0,118.426,27.413,124.246,53.921C387.251,161.756,371.538,197.223,362.567,214.329z M404.275,271.515
			c-1.878,2.183-2.183,5.311-0.758,7.815c14.214,24.987,21.727,53.423,21.727,82.238c0,54.081-26.294,104.781-70.452,136.058
			H162.397c-44.157-31.278-70.451-81.977-70.451-136.058c0-27.478,6.841-54.723,19.782-78.792c1.409-2.621,0.947-5.823-1.075-7.936
			c-6.24-7.584-38.102-58.195-45.284-110.887h51.527c4.049,25.624,16.057,49.837,23.023,62.237
			c-3.506,3.475-6.452,6.909-6.621,7.107c-2.44,2.862-2.099,7.162,0.762,9.604c1.282,1.095,2.854,1.63,4.42,1.63
			c1.924,0,3.837-0.81,5.186-2.389c0.051-0.059,5.083-5.938,9.225-9.403c29.688-24.389,67.229-37.82,105.704-37.82
			c37.284,0,72.56,12.076,102.015,34.921c0.271,0.211,0.573,0.371,0.869,0.537c3.817,3.477,7.85,8.183,7.897,8.238
			c1.348,1.577,3.262,2.388,5.186,2.388c1.564,0,3.135-0.535,4.419-1.631c2.862-2.441,3.202-6.741,0.762-9.602
			c-0.165-0.193-2.953-3.438-6.325-6.811c7.148-13.195,17.557-35.494,21.256-59.004h52.48c-2.015,18.546-7.327,38.157-15.974,58.695
			C420.686,247.57,406.321,268.836,404.275,271.515z"/>
		<path style="fill:#283182;" d="M260.025,288.6c23.489,0.936,45.128,13.329,57.889,33.153c1.301,2.024,3.496,3.127,5.735,3.127
			c1.263,0,2.54-0.35,3.68-1.085c3.165-2.037,4.079-6.252,2.043-9.417c-15.162-23.556-40.882-38.282-68.805-39.394
			c-3.816-0.167-6.929,2.775-7.079,6.536C253.339,285.281,256.265,288.45,260.025,288.6z"/>
		<path style="fill:#283182;" d="M336.177,353.67c-3.764,0-6.813,3.049-6.813,6.812l0.001,0.33c0,39.85-32.422,72.271-72.271,72.271
			c-39.851,0-72.269-32.422-72.269-72.271c0-4.167,0.356-8.339,1.059-12.402c0.641-3.707-1.844-7.234-5.553-7.875
			c-3.713-0.637-7.232,1.845-7.875,5.552c-0.834,4.828-1.258,9.782-1.258,14.725c0,47.362,38.533,85.897,85.897,85.897
			c47.365,0,85.898-38.534,85.898-85.979l-0.001-0.248C342.99,356.719,339.94,353.67,336.177,353.67z"/>
		<path style="fill:#283182;" d="M156.285,49.276c0.748,0,1.51-0.124,2.258-0.386c5.491-1.927,11.425-3.657,17.635-5.141
			c3.66-0.874,5.917-4.55,5.043-8.211s-4.549-5.917-8.209-5.044c-6.666,1.593-13.052,3.455-18.982,5.538
			c-3.551,1.247-5.42,5.136-4.173,8.686C150.842,47.522,153.472,49.276,156.285,49.276z"/>
		<path style="fill:#283182;" d="M85.316,110.436c0.863,0.362,1.755,0.532,2.634,0.532c2.662,0,5.19-1.57,6.285-4.176
			c2.367-5.638,5.151-10.977,8.276-15.873v-0.001c8.776-13.745,20.358-24.495,35.415-32.863c3.288-1.829,4.472-5.976,2.644-9.265
			c-1.828-3.288-5.978-4.475-9.264-2.645c-16.852,9.366-30.409,21.969-40.291,37.458c-0.004,0.008-0.007,0.014-0.011,0.023
			c-3.533,5.535-6.674,11.556-9.333,17.891C80.215,104.986,81.846,108.98,85.316,110.436z"/>
	</g>
</g>
</svg>
