<?xml version="1.0" encoding="iso-8859-1"?>
<!-- Generator: Adobe Illustrator 19.0.0, SVG Export Plug-In . SVG Version: 6.00 Build 0)  -->
<svg version="1.1" id="Layer_1" xmlns="http://www.w3.org/2000/svg" xmlns:xlink="http://www.w3.org/1999/xlink" x="0px" y="0px"
	 viewBox="0 0 512 512" style="enable-background:new 0 0 512 512;" xml:space="preserve">
<g>
	<g>
		<g>
			<path style="fill:#FFD561;" d="M377.738,153.932c-25.161-34.643-65.951-57.181-112.034-57.181
				c-46.081,0-86.88,22.539-112.032,57.172l73.588,63.381h76.885L377.738,153.932z"/>
		</g>
		<path style="fill:#283182;" d="M364.671,138.236c-27.477-37.826-71.727-60.408-118.373-60.408
			c-46.652,0-90.902,22.58-118.372,60.402c-2.394,3.298-1.861,7.88,1.227,10.537l73.587,63.381c1.422,1.225,3.236,1.899,5.112,1.899
			h38.285c0.215,0.016,0.431,0.082,0.645,0.082c0.327,0,0.649-0.041,0.97-0.082h36.987c1.876,0,3.69-0.673,5.112-1.898
			l73.592-63.374C366.531,146.118,367.065,141.533,364.671,138.236z M281.83,198.381h-24.939l20.725-80.857
			c1.074-4.19-1.453-8.459-5.644-9.533c-4.193-1.077-8.459,1.452-9.534,5.644l-21.722,84.746h-29.955l-65.769-56.647
			c24.703-30.331,62.055-48.239,101.306-48.239c39.247,0,76.596,17.909,101.306,48.245L281.83,198.381z"/>
	</g>
	<g>
		<path style="fill:#283182;" d="M477.519,0.001H34.481C15.468,0.001,0,15.47,0,34.482v443.036
			c0,19.013,15.468,34.481,34.481,34.481h443.039c19.013,0,34.481-15.468,34.481-34.481V34.482
			C512,15.47,496.532,0.001,477.519,0.001z M496.332,477.518c0,10.373-8.44,18.813-18.813,18.813H34.481
			c-10.374,0-18.813-8.44-18.813-18.813V34.482c0-10.373,8.439-18.813,18.813-18.813h443.039c10.373,0,18.813,8.44,18.813,18.813
			V477.518z"/>
		<path style="fill:#283182;" d="M455.331,36.128h-14.195c-4.326,0-7.833,3.506-7.833,7.833c0,4.327,3.507,7.834,7.833,7.834h14.195
			c2.549,0,4.701,2.152,4.701,4.7v398.668c0,2.548-2.152,4.7-4.701,4.7H56.663c-2.548,0-4.7-2.152-4.7-4.7V156.83
			c0-4.326-3.507-7.833-7.833-7.833c-4.329,0-7.835,3.507-7.835,7.833v298.334c0,11.231,9.137,20.368,20.368,20.368h398.668
			c11.232,0,20.369-9.137,20.369-20.368V56.496C475.7,45.266,466.563,36.128,455.331,36.128z"/>
		<path style="fill:#283182;" d="M44.13,92.594c4.326,0,7.833-3.507,7.833-7.834V56.496c0-2.548,2.152-4.7,4.7-4.7h328.072
			c4.325,0,7.832-3.507,7.832-7.834c0-4.328-3.507-7.833-7.832-7.833H56.663c-11.23,0-20.368,9.137-20.368,20.368V84.76
			C36.295,89.087,39.801,92.594,44.13,92.594z"/>
	</g>
</g>
</svg>
