<!--?xml version="1.0" standalone="no"?-->

<svg version="1.0" xmlns="http://www.w3.org/2000/svg" width="300.000000pt" height="300.000000pt" viewBox="0 0 300.000000 300.000000" preserveAspectRatio="xMidYMid meet">
<g transform="translate(0.000000,300.000000) scale(0.100000,-0.100000)" fill="#242424" stroke="none">
<path class="node" id="node1" d="M1460 2951 c-75 -23 -172 -115 -217 -206 -31 -62 -52 -148 -60 -240
-3 -43 -12 -80 -23 -95 -26 -36 -40 -96 -40 -167 0 -111 -56 -162 -100 -90
-11 17 -20 42 -20 55 0 15 -4 21 -11 16 -15 -9 -6 -123 12 -151 7 -12 21 -25
31 -30 16 -7 14 -13 -19 -60 -28 -41 -36 -62 -37 -100 -1 -26 3 -58 7 -70 7
-18 5 -23 -8 -23 -18 0 -68 -32 -97 -60 -9 -10 -29 -42 -45 -71 -27 -53 -28
-59 -30 -224 -3 -221 -3 -222 -40 -245 -17 -10 -34 -23 -37 -29 -4 -6 -14 -11
-21 -11 -11 0 -14 14 -13 63 2 95 -16 166 -50 197 -16 14 -34 40 -40 58 -14
40 -50 92 -64 92 -5 0 -21 9 -35 20 -19 15 -41 20 -83 20 -48 0 -64 -5 -99
-30 -70 -51 -136 -164 -155 -263 -12 -62 4 -136 36 -172 49 -56 119 -95 170
-95 38 0 55 -7 95 -38 114 -86 107 -78 96 -126 -12 -52 -3 -80 40 -124 39 -41
138 -102 164 -102 11 0 51 16 90 35 39 19 76 35 81 35 18 0 79 93 91 137 6 22
26 74 45 115 18 40 37 89 41 107 l7 34 29 -54 c16 -29 35 -60 43 -68 22 -26
43 -73 50 -116 4 -22 20 -65 36 -95 40 -78 43 -129 10 -157 -11 -10 -20 -24
-20 -33 0 -8 -10 -30 -23 -49 -109 -168 -114 -183 -152 -438 -5 -34 -3 -44 10
-49 9 -4 18 -4 21 -1 3 2 9 47 15 98 11 115 31 185 74 266 28 52 35 60 45 48
10 -12 6 -30 -19 -92 -36 -91 -61 -203 -61 -274 l0 -49 505 0 505 0 0 28 c-1
15 -7 45 -15 67 -8 22 -15 48 -15 57 0 24 -81 179 -117 225 -42 52 -93 140
-110 188 -11 32 -11 48 -2 87 10 36 10 62 1 109 -11 58 -10 64 15 112 l26 51
26 -30 c45 -52 171 -154 190 -154 18 0 130 108 190 184 35 44 113 200 132 264
l12 42 65 0 c76 0 116 17 171 72 42 43 71 109 71 165 0 59 -50 164 -104 217
-47 48 -48 51 -37 80 47 115 32 199 -47 273 -47 45 -120 66 -179 53 -132 -30
-182 -90 -183 -219 0 -73 48 -151 118 -190 14 -8 13 -13 -12 -51 -37 -57 -53
-134 -39 -195 l11 -47 -61 -76 c-33 -43 -64 -79 -68 -82 -4 -3 -21 -23 -38
-44 -30 -37 -42 -35 -21 3 12 23 -5 86 -30 111 -10 10 -24 37 -30 59 -6 24
-23 49 -41 64 -27 21 -30 27 -20 45 25 48 -3 165 -53 217 -31 32 -99 55 -162
55 l-24 0 25 40 c17 27 25 54 25 85 0 32 4 44 11 39 8 -4 10 -28 6 -67 -5 -54
-4 -58 10 -44 17 17 23 126 9 164 -7 18 -2 25 33 42 41 21 79 66 67 78 -4 4
-20 -1 -36 -11 -34 -20 -50 -14 -50 17 0 24 17 52 63 106 16 19 36 50 44 70
20 47 19 136 -2 185 -13 31 -15 55 -10 103 10 93 -11 155 -78 229 -57 62 -62
65 -165 110 -62 27 -64 27 -93 10 -28 -16 -33 -17 -64 -2 -35 17 -102 20 -145
7z m156 -36 c21 -13 26 -13 56 4 l33 19 82 -40 c80 -38 138 -91 171 -154 17
-32 27 -154 13 -154 -6 0 -11 5 -11 11 0 5 -4 8 -9 4 -5 -3 6 -40 26 -82 32
-70 35 -83 31 -145 -4 -55 -11 -74 -34 -103 -16 -20 -41 -52 -56 -72 -47 -60
-32 -133 24 -119 25 7 26 7 -56 -30 -34 -16 -46 -11 -46 21 0 40 31 107 77
163 23 29 45 62 48 75 20 83 4 193 -35 231 l-20 20 0 -21 c0 -12 6 -28 13 -35
44 -43 51 -142 15 -211 -11 -23 -23 -37 -25 -30 -2 7 0 21 6 32 14 25 15 53 2
33 -12 -20 -24 32 -16 69 9 39 26 26 19 -14 -5 -31 -5 -31 11 -12 20 26 13 59
-26 107 -16 20 -33 48 -39 62 -14 39 -28 31 -28 -15 -1 -23 -3 -44 -6 -47 -3
-3 -6 5 -6 17 0 40 -29 71 -66 71 -18 0 -36 -5 -40 -11 -11 -18 -86 -49 -119
-49 -22 0 -26 3 -15 10 8 5 12 12 8 15 -9 10 -146 -32 -177 -54 -30 -22 -51
-27 -51 -13 0 5 -11 14 -24 21 -20 11 -29 11 -55 -5 -37 -22 -81 -85 -93 -134
-20 -80 -40 -187 -40 -212 -1 -16 -4 -28 -7 -28 -4 0 -23 -16 -43 -36 -41 -39
-61 -37 -92 11 -25 37 -15 50 17 24 25 -19 31 -20 53 -9 34 19 64 105 64 187
0 122 64 192 223 243 20 6 37 16 37 21 0 12 -1 12 -76 -16 -36 -14 -71 -25
-76 -25 -10 0 -7 43 7 90 6 18 5 22 -3 15 -6 -6 -16 -28 -22 -50 l-10 -40 5
45 c7 73 50 154 108 205 28 25 46 45 38 45 -22 0 -130 -117 -140 -152 -6 -21
-10 -26 -10 -13 -2 32 68 155 114 200 27 27 88 64 123 76 37 12 119 3 148 -16z
m194 -421 c0 -21 -8 -42 -21 -55 -24 -24 -20 -34 10 -24 11 3 30 24 42 45 18
31 25 37 36 29 16 -14 18 -59 2 -59 -21 0 -120 -85 -126 -109 -11 -42 47 -52
90 -14 22 21 23 63 1 63 -14 0 -14 3 -4 15 21 25 39 17 40 -17 7 -126 2 -139
-91 -279 -69 -104 -98 -129 -149 -129 -29 0 -50 10 -92 43 -74 57 -138 133
-138 162 0 31 -17 41 -25 16 -4 -14 11 -52 47 -117 69 -125 86 -144 136 -144
l38 0 -3 -87 c-3 -76 -2 -85 9 -66 13 22 14 22 26 3 27 -44 6 -108 -36 -111
-58 -4 -97 11 -192 76 -87 59 -153 95 -177 95 -11 0 0 16 32 48 28 26 55 55
60 65 9 17 14 17 38 6 39 -18 57 2 23 25 -17 11 -26 12 -26 5 0 -7 -8 -5 -20
6 -19 17 -46 82 -38 91 3 2 10 -14 17 -36 11 -39 27 -57 38 -46 3 3 -2 17 -11
30 -23 36 -20 40 13 17 16 -12 34 -21 40 -21 18 0 13 18 -8 29 -25 14 -41 62
-41 122 0 39 -4 49 -20 54 -12 4 -20 15 -20 29 0 13 -7 43 -15 66 -19 55 -19
110 1 138 20 29 38 28 62 -3 11 -14 23 -25 26 -25 4 0 19 11 34 25 15 14 31
25 37 25 5 0 22 7 38 14 35 19 34 11 -4 -25 -17 -16 -28 -33 -24 -39 4 -6 12
-5 22 5 24 25 68 44 114 51 24 4 61 15 82 26 30 15 37 16 37 4 0 -38 -128
-112 -153 -87 -14 14 -71 15 -62 1 3 -5 14 -10 24 -10 9 0 22 -5 29 -12 9 -9
5 -14 -20 -22 -42 -14 -44 -27 -13 -65 20 -24 35 -31 61 -31 33 0 47 14 22 22
-7 3 -9 12 -4 24 7 18 8 18 26 -6 11 -14 20 -20 20 -13 0 6 9 15 20 18 29 9
24 23 -15 42 -19 9 -35 19 -35 22 1 3 24 17 52 30 38 18 58 36 81 72 24 39 33
47 43 38 8 -6 14 -27 14 -45z m-583 -6 c-3 -8 -6 -5 -6 6 -1 11 2 17 5 13 3
-3 4 -12 1 -19z m19 -173 c-21 -49 -21 -79 0 -40 25 48 31 49 37 3 4 -29 0
-56 -13 -88 -10 -25 -21 -76 -23 -115 -4 -50 -13 -83 -32 -117 -32 -58 -29
-81 4 -33 29 44 50 100 52 145 1 35 1 35 10 -9 5 -24 16 -52 25 -62 18 -20 16
-25 -33 -86 -22 -27 -42 -43 -56 -43 -12 0 -39 -9 -60 -20 l-37 -20 0 44 c0
37 6 50 45 91 48 52 52 67 10 39 -54 -35 -89 -124 -71 -181 10 -31 -12 -39
-24 -8 -13 34 -13 96 1 132 13 35 55 80 92 99 15 8 27 19 27 25 0 15 -52 -16
-87 -53 -56 -58 -81 -156 -53 -209 9 -16 7 -19 -13 -19 -38 0 -47 19 -45 89 1
55 2 58 5 19 2 -25 10 -51 17 -57 11 -9 12 -2 8 38 -6 65 18 112 91 181 51 48
107 123 107 143 0 18 -20 4 -26 -17 -3 -14 -14 -32 -25 -42 -22 -20 -25 -7 -5
22 8 11 18 49 22 85 4 35 18 89 33 119 l25 55 4 -37 c2 -20 -4 -53 -12 -73z
m594 25 c0 -5 -5 -10 -11 -10 -5 0 -7 5 -4 10 3 6 8 10 11 10 2 0 4 -4 4 -10z
m-520 -140 c0 -5 -4 -10 -10 -10 -5 0 -10 -9 -10 -19 0 -11 -4 -23 -10 -26
-14 -9 -12 39 2 53 15 15 28 16 28 2z m510 -132 c0 -12 12 -34 27 -50 38 -40
25 -43 -21 -4 -31 26 -37 36 -32 54 9 28 26 28 26 0z m525 -14 c-15 -19 -31
-47 -35 -62 -7 -22 -8 -23 -9 -6 -1 20 52 104 65 104 4 0 -6 -16 -21 -36z
m-541 -58 c32 -55 33 -108 3 -161 -22 -38 -56 -56 -48 -25 2 8 9 32 14 52 8
28 8 54 -1 98 -11 52 -10 80 3 80 2 0 15 -20 29 -44z m865 -5 c0 -14 -1 -14
-6 -1 -3 8 -10 24 -15 35 -9 20 -9 20 6 1 9 -11 16 -27 15 -35z m-84 -50 c45
-47 34 -51 -42 -16 -58 28 -58 28 -43 56 13 24 30 16 85 -40z m-830 4 c7 -48
-1 -102 -17 -122 -7 -9 -23 -6 -64 15 -45 23 -53 31 -51 52 1 17 9 26 23 28
12 2 36 19 54 38 19 18 37 34 41 34 4 0 10 -20 14 -45z m679 15 c-12 -5 -25
-13 -28 -19 -12 -18 15 -23 39 -7 14 9 25 13 25 8 0 -18 -27 -43 -55 -51 l-30
-9 29 -1 c24 -1 27 -4 22 -23 -3 -13 -6 -45 -7 -73 0 -37 -3 -45 -9 -30 -5 11
-9 35 -9 54 -1 19 -8 43 -18 53 -37 41 -11 109 41 107 21 0 21 0 0 -9z m243
-57 c-2 -16 -4 -5 -4 22 0 28 2 40 4 28 2 -13 2 -35 0 -50z m-142 8 c3 -5 28
-17 55 -26 28 -9 50 -20 50 -25 0 -4 3 -22 6 -39 6 -28 4 -31 -20 -31 -14 0
-26 3 -26 8 0 14 -59 33 -92 30 -28 -2 -34 -8 -39 -33 l-6 -30 -7 25 c-10 35
9 80 33 80 10 0 35 -7 54 -15 20 -8 42 -15 48 -15 20 0 -9 27 -36 34 -49 12
-76 26 -70 36 8 13 42 13 50 1z m-1320 -99 c61 -22 72 -28 210 -116 87 -56
144 -71 191 -51 35 14 60 67 48 101 -5 16 -4 16 5 4 24 -34 4 -140 -32 -165
-12 -8 -31 -15 -43 -15 -29 0 -122 53 -215 122 -81 61 -164 108 -190 108 -9 0
-22 7 -29 15 -16 19 -7 19 55 -3z m503 -24 c25 -15 56 -23 111 -26 133 -8 170
-41 190 -171 10 -61 -2 -118 -19 -91 -6 8 -10 10 -10 4 0 -6 17 -23 39 -37 29
-19 40 -35 45 -61 4 -19 18 -48 31 -64 13 -16 27 -40 30 -53 5 -21 1 -27 -20
-37 -39 -18 -43 -15 -43 31 0 52 -12 84 -58 153 -22 33 -34 61 -30 71 8 19 -2
53 -14 53 -5 0 -9 -19 -8 -42 0 -32 10 -58 39 -102 77 -120 66 -185 -51 -300
-45 -43 -79 -81 -76 -84 3 -3 14 2 24 11 51 46 56 -15 10 -115 -30 -66 -31
-71 -20 -130 8 -45 8 -71 0 -103 -9 -34 -8 -47 5 -75 26 -52 22 -94 -15 -135
-27 -32 -36 -36 -64 -31 -28 6 -35 2 -54 -24 -20 -27 -26 -30 -79 -30 -32 0
-60 3 -64 6 -9 9 56 101 76 107 13 4 17 16 17 47 0 35 -2 40 -14 31 -8 -7 -17
-23 -20 -36 -10 -40 -67 -116 -94 -126 -34 -13 -79 -3 -125 29 l-38 26 77 70
c43 39 81 70 86 69 9 -3 68 96 68 115 0 24 -20 12 -50 -30 -42 -58 -129 -147
-160 -163 -58 -29 -66 -28 -98 16 -29 39 -30 43 -17 70 24 44 18 86 -20 150
-23 40 -37 79 -41 115 -6 45 -15 66 -50 111 -53 68 -59 104 -8 45 52 -61 65
-56 57 18 -5 52 -4 60 11 60 22 0 20 13 -5 28 -11 7 -27 29 -35 48 -16 39 -21
41 -40 17 -13 -17 -13 -17 -14 1 0 10 11 31 25 48 20 24 25 26 25 11 1 -24 30
43 30 68 0 30 -16 22 -50 -23 -18 -24 -29 -34 -25 -23 4 11 7 27 8 35 0 8 4
20 9 27 5 7 7 17 3 23 -3 5 -1 10 4 10 6 0 11 -8 12 -17 0 -10 6 0 13 22 15
50 9 125 -10 125 -9 0 -14 -11 -14 -30 0 -16 5 -30 10 -30 6 0 10 -4 10 -10 0
-5 -6 -7 -14 -4 -9 4 -15 -7 -20 -36 -3 -23 -18 -60 -33 -82 -14 -23 -32 -74
-40 -112 -8 -39 -19 -75 -23 -80 -16 -16 -152 14 -184 41 -16 13 -42 27 -58
30 -15 3 -31 10 -34 14 -10 17 -12 294 -2 344 14 66 38 112 83 155 36 35 36
35 121 33 67 -2 84 0 84 11 0 23 19 23 79 4 63 -21 75 -28 191 -113 101 -75
158 -105 210 -111 32 -4 43 0 68 25 43 44 56 138 27 195 -23 45 -19 46 33 14z
m842 12 l25 -8 -28 -1 c-16 -1 -37 -6 -48 -11 -16 -9 -19 -7 -19 10 0 22 23
25 70 10z m-2092 -256 c24 -17 29 -34 9 -34 -17 0 -75 -62 -116 -122 -36 -54
-57 -60 -71 -23 -6 15 -17 25 -30 25 -11 0 -20 2 -20 5 0 18 48 96 78 128 31
32 42 37 82 37 25 0 56 -7 68 -16z m759 -126 c-3 -8 -6 -5 -6 6 -1 11 2 17 5
13 3 -3 4 -12 1 -19z m-623 -14 c9 -3 16 -11 16 -16 0 -6 -7 -8 -15 -4 -23 8
-45 -4 -45 -24 0 -11 -4 -22 -10 -25 -19 -11 -10 35 10 55 22 22 22 22 44 14z
m1851 -94 c24 -13 26 -18 20 -55 -15 -98 -124 -278 -228 -377 -80 -76 -61 -78
-170 16 -72 63 -107 113 -107 154 0 34 5 38 30 23 23 -15 33 0 11 16 -12 8
-26 11 -32 7 -8 -4 -8 -1 -1 13 16 29 109 113 126 113 22 0 30 -43 17 -95 -14
-57 -14 -60 4 -45 8 7 15 20 15 29 0 27 54 112 112 177 30 33 64 75 77 92 l23
33 38 -43 c21 -24 50 -50 65 -58z m-1819 14 c-6 -16 -52 -19 -61 -4 -3 6 3 10
14 10 11 0 26 10 33 23 11 20 13 20 16 4 2 -10 1 -25 -2 -33z m-133 -10 c3 -3
-12 -35 -34 -70 -41 -68 -47 -84 -26 -83 6 0 25 27 40 60 29 61 46 71 80 45
16 -12 13 -18 -38 -67 -30 -30 -55 -57 -55 -61 0 -19 23 -5 61 37 46 50 54 53
81 28 24 -21 23 -40 -3 -48 -38 -12 -112 -70 -95 -73 9 -2 30 8 47 22 40 34
76 43 95 24 12 -12 10 -19 -20 -54 -19 -23 -38 -53 -41 -67 -10 -38 -34 -56
-49 -36 -6 9 -23 24 -38 33 -16 10 -28 27 -28 37 0 13 -7 17 -27 16 -24 -2
-28 2 -28 23 0 14 -6 30 -13 35 -11 9 -8 25 12 88 14 42 30 86 36 97 10 19 31
26 43 14z m162 -54 c7 -33 -1 -70 -16 -70 -6 0 -16 15 -24 33 -8 19 -22 40
-31 48 -16 13 -14 14 17 20 43 7 46 5 54 -31z m305 -172 c32 -53 28 -149 -10
-224 -69 -140 -173 -210 -232 -157 -62 56 42 317 158 394 41 27 61 24 84 -13z
m110 0 c0 -13 -11 -45 -24 -73 l-23 -50 1 45 c1 25 -2 57 -7 73 -7 25 -5 27
23 27 24 0 30 -4 30 -22z m280 -584 c75 -76 193 -123 311 -124 39 0 79 9 139
33 73 28 88 38 106 71 24 42 30 39 40 -21 5 -33 2 -44 -20 -70 -34 -40 -94
-75 -176 -103 -54 -18 -80 -21 -150 -17 -115 6 -183 38 -272 129 -74 74 -90
108 -64 137 9 10 16 24 16 32 1 10 5 8 15 -6 8 -11 33 -38 55 -61z"></path>
<path class="node" id="node2" d="M1579 2878 c19 -5 43 -15 53 -22 16 -11 9 -14 -49 -19 -38 -3 -81
-13 -98 -22 l-30 -17 45 9 c25 4 78 8 118 8 39 0 72 3 72 7 0 5 -4 8 -9 8 -5
0 -12 9 -16 19 -6 21 -54 41 -94 40 -23 -1 -22 -2 8 -11z"></path>
<path class="node" id="node3" d="M1721 2849 c-9 -27 -8 -34 6 -45 13 -9 23 -9 37 -2 10 6 37 8 58 5
35 -5 38 -4 21 9 -22 17 -75 18 -91 2 -9 -9 -12 -9 -12 0 0 6 9 16 20 22 27
14 26 33 -1 25 -15 -5 -19 -4 -15 4 4 6 3 11 -2 11 -6 0 -15 -14 -21 -31z"></path>
<path class="node" id="node4" d="M1555 2779 c-5 -7 6 -9 36 -4 29 4 59 1 88 -9 52 -19 65 -14 22 8
-34 18 -136 22 -146 5z"></path>
<path class="node" id="node5" d="M1770 2769 c-10 -6 0 -9 34 -9 54 0 57 4 11 13 -17 3 -37 2 -45 -4z"></path>
<path class="node" id="node6" d="M1575 2718 c-45 -12 -89 -38 -65 -38 8 0 26 6 40 13 51 27 88 28 158
3 65 -22 68 -22 98 -5 17 9 40 19 50 22 15 4 13 5 -6 6 -14 0 -38 -6 -54 -14
-26 -14 -33 -14 -60 -1 -44 20 -114 26 -161 14z"></path>
<path class="node" id="node7" d="M1765 2720 c-8 -13 5 -13 25 0 13 8 13 10 -2 10 -9 0 -20 -4 -23 -10z"></path>
<path class="node" id="node8" d="M1603 2650 c-49 -17 -154 -90 -162 -113 -2 -6 18 5 45 24 109 78 180
102 234 80 24 -9 24 -10 3 -10 -33 -1 -28 -18 7 -23 41 -6 41 26 0 47 -37 19
-62 18 -127 -5z"></path>
<path class="node" id="node9" d="M1788 2626 c-3 -16 0 -27 9 -30 25 -10 39 -6 21 5 -47 27 4 53 55 28
21 -10 21 -10 3 5 -11 9 -34 16 -52 16 -26 0 -33 -5 -36 -24z"></path>
<path class="node" id="node10" d="M1315 2440 c-3 -5 -1 -12 5 -15 6 -4 8 -15 5 -26 -4 -10 -2 -19 3
-19 15 0 23 -29 13 -48 -4 -9 -11 -32 -14 -49 -6 -29 -4 -33 15 -33 17 0 20 4
15 30 -4 16 -2 32 3 35 13 8 13 66 1 98 -10 26 -37 42 -46 27z"></path>
<path class="node" id="node11" d="M1741 2392 c-14 -26 -14 -42 -1 -42 11 0 25 48 17 56 -3 3 -10 -3
-16 -14z"></path>
<path class="node" id="node12" d="M1641 2206 c-18 -22 -2 -48 27 -44 14 2 28 9 30 17 3 10 -1 12 -17 8
-17 -4 -21 -2 -17 8 7 20 -9 28 -23 11z"></path>
<path class="node" id="node13" d="M1737 2191 c3 -13 -2 -21 -17 -26 -15 -5 -19 -10 -12 -17 16 -16 52
9 52 37 0 15 -6 25 -14 25 -9 0 -12 -7 -9 -19z"></path>
<path class="node" id="node14" d="M1648 2123 c-33 -5 -51 -26 -44 -50 8 -24 60 -55 80 -47 22 8 20 24
-3 24 -10 0 -24 7 -31 15 -12 14 -7 16 41 13 49 -3 54 -1 57 20 3 18 -1 22
-21 22 -14 0 -31 2 -39 3 -7 2 -25 2 -40 0z"></path>
<path class="node" id="node15" d="M1433 1828 c0 -43 5 -78 9 -78 18 0 19 32 5 92 l-15 63 1 -77z"></path>
<path class="node" id="node16" d="M1520 1748 c0 -19 18 -43 25 -36 9 9 -4 48 -16 48 -5 0 -9 -6 -9 -12z"></path>
<path class="node" id="node17" d="M1234 2174 c-6 -19 -8 -36 -5 -39 4 -2 11 12 17 31 6 19 8 36 5 39
-4 2 -11 -12 -17 -31z"></path>
<path class="node" id="node18" d="M1140 1733 c0 -12 110 -74 110 -63 0 6 -19 23 -42 40 -39 29 -68 38
-68 23z"></path>
<path class="node" id="node19" d="M1770 1497 c-54 -59 -60 -67 -32 -51 56 32 136 126 105 123 -5 0 -37
-33 -73 -72z"></path>
<path class="node" id="node20" d="M1110 1335 c-12 -19 -36 -46 -53 -60 l-32 -26 24 -19 c28 -24 41 -25
41 -5 0 8 -7 15 -15 15 -21 0 -19 16 6 33 22 16 69 76 69 89 0 19 -20 5 -40
-27z"></path>
<path class="node" id="node21" d="M1335 1090 c-3 -4 10 -37 28 -72 33 -63 33 -63 74 -61 23 1 63 13 89
27 26 14 50 24 52 22 12 -13 -101 -156 -124 -156 -15 0 -44 -38 -44 -57 0 -24
21 -13 75 41 89 90 180 224 162 242 -2 3 -30 -2 -60 -11 -45 -13 -67 -14 -123
-5 -38 6 -81 17 -96 25 -15 7 -30 10 -33 5z"></path>
<path class="node" id="node22" d="M1790 1001 c0 -6 5 -13 10 -16 16 -10 12 -107 -7 -164 -15 -48 -15
-54 1 -84 l17 -32 -5 38 c-3 20 1 52 9 70 32 78 26 197 -11 197 -8 0 -14 -4
-14 -9z"></path>
<path class="node" id="node23" d="M2130 891 c0 -13 59 -20 90 -10 28 8 25 9 -42 15 -27 2 -48 0 -48 -5z"></path>
</g>
<g transform="translate(0.000000,300.000000) scale(0.100000,-0.100000)" fill="#FFFFFF" stroke="none">

<path class="node" id="node25" d="M1468 2931 c-35 -12 -96 -49 -123 -76 -46 -45 -116 -168 -114 -200 0
-13 4 -8 10 13 10 35 118 152 140 152 8 0 -10 -20 -38 -45 -58 -51 -101 -132
-108 -205 l-5 -45 10 40 c6 22 16 44 22 50 8 7 9 3 3 -15 -14 -47 -17 -90 -7
-90 5 0 40 11 76 25 75 28 76 28 76 16 0 -5 -17 -15 -37 -21 -159 -51 -223
-121 -223 -243 0 -82 -30 -168 -64 -187 -22 -11 -28 -10 -53 9 -32 26 -42 13
-17 -24 31 -48 51 -50 92 -11 20 20 39 36 43 36 3 0 6 12 7 28 0 25 20 132 40
212 12 49 56 112 93 134 26 16 35 16 55 5 13 -7 24 -16 24 -21 0 -14 21 -9 51
13 31 22 168 64 177 54 4 -3 0 -10 -8 -15 -11 -7 -7 -10 15 -10 33 0 108 31
119 49 4 6 22 11 40 11 37 0 66 -31 66 -71 0 -12 3 -20 6 -17 3 3 5 24 6 47 0
46 14 54 28 15 6 -14 23 -42 39 -62 39 -48 46 -81 26 -107 -16 -19 -16 -19
-11 12 7 40 -10 53 -19 14 -8 -37 4 -89 16 -69 13 20 12 -8 -2 -33 -6 -11 -8
-25 -6 -32 2 -7 14 7 25 30 36 69 29 168 -15 211 -7 7 -13 23 -13 35 l0 21 20
-20 c39 -38 55 -148 35 -231 -3 -13 -25 -46 -48 -75 -46 -56 -77 -123 -77
-163 0 -32 12 -37 46 -21 82 37 81 37 56 30 -56 -14 -71 59 -24 119 15 20 40
52 56 72 23 29 30 48 34 103 4 62 1 75 -31 145 -20 42 -31 79 -26 82 5 4 9 1
9 -4 0 -6 5 -11 11 -11 14 0 4 122 -13 154 -33 63 -91 116 -171 154 l-82 40
-33 -19 c-30 -17 -35 -17 -56 -4 -29 19 -111 28 -148 16z m160 -52 c17 -6 34
-19 37 -30 4 -10 11 -19 16 -19 5 0 9 -3 9 -8 0 -4 -33 -7 -72 -7 -40 0 -93
-4 -118 -8 l-45 -9 30 17 c17 9 60 19 98 22 58 5 65 8 49 19 -10 7 -34 17 -53
22 -30 9 -31 10 -8 11 14 1 40 -4 57 -10z m116 -10 c-4 -8 0 -9 15 -4 27 8 28
-11 1 -25 -11 -6 -20 -16 -20 -22 0 -9 3 -9 12 0 16 16 69 15 91 -2 17 -13 14
-14 -21 -9 -21 3 -48 1 -58 -5 -14 -7 -24 -7 -37 2 -14 11 -15 18 -6 45 6 17
15 31 21 31 5 0 6 -5 2 -11z m-43 -95 c43 -22 30 -27 -22 -8 -29 10 -59 13
-88 9 -30 -5 -41 -3 -36 4 10 17 112 13 146 -5z m148 -10 c2 -2 -18 -4 -45 -4
-34 0 -44 3 -34 9 12 9 68 4 79 -5z m-113 -60 c27 -13 34 -13 60 1 16 8 40 14
54 14 19 -1 21 -2 6 -6 -10 -3 -33 -13 -50 -22 -30 -17 -33 -17 -98 5 -70 25
-107 24 -158 -3 -34 -18 -61 -18 -35 1 53 36 156 40 221 10z m54 16 c-20 -13
-33 -13 -25 0 3 6 14 10 23 10 15 0 15 -2 2 -10z m-60 -65 c41 -21 41 -53 0
-47 -35 5 -40 22 -7 23 21 0 21 1 -3 10 -54 22 -125 -2 -234 -80 -65 -46 -56
-25 12 29 53 41 136 78 180 79 13 1 36 -6 52 -14z m146 -21 c18 -15 18 -15 -3
-5 -51 25 -102 -1 -55 -28 18 -11 4 -15 -21 -5 -9 3 -12 14 -9 30 3 19 10 24
36 24 18 0 41 -7 52 -16z"></path>
<path class="node" id="node26" d="M1753 2501 c-23 -36 -43 -54 -81 -72 -28 -13 -51 -27 -52 -30 0 -3
16 -13 35 -22 39 -19 44 -33 15 -42 -11 -3 -20 -12 -20 -18 0 -7 -9 -1 -20 13
-18 24 -19 24 -26 6 -5 -12 -3 -21 4 -24 25 -8 11 -22 -22 -22 -26 0 -41 7
-61 31 -31 38 -29 51 13 65 25 8 29 13 20 22 -7 7 -20 12 -29 12 -10 0 -21 5
-24 10 -9 14 48 13 62 -1 25 -25 153 49 153 87 0 12 -7 11 -37 -4 -21 -11 -58
-22 -82 -26 -46 -7 -90 -26 -114 -51 -10 -10 -18 -11 -22 -5 -4 6 7 23 24 39
38 36 39 44 4 25 -16 -7 -33 -14 -38 -14 -6 0 -22 -11 -37 -25 -15 -14 -30
-25 -34 -25 -3 0 -15 11 -26 25 -55 70 -101 -28 -63 -135 8 -23 15 -53 15 -66
0 -14 8 -25 20 -29 16 -5 20 -15 20 -54 0 -60 16 -108 41 -122 21 -11 26 -29
8 -29 -6 0 -24 9 -40 21 -33 23 -36 19 -13 -17 9 -13 14 -27 11 -30 -11 -11
-27 7 -38 46 -7 22 -14 38 -17 36 -8 -9 19 -74 38 -91 12 -11 20 -13 20 -6 0
7 9 6 26 -5 34 -23 16 -43 -23 -25 -24 11 -29 11 -38 -6 -5 -10 -32 -39 -60
-65 -32 -32 -43 -48 -32 -48 24 0 90 -36 177 -95 95 -65 134 -80 192 -76 42 3
63 67 36 111 -12 19 -13 19 -26 -3 -11 -19 -12 -10 -9 66 l3 87 -38 0 c-50 0
-67 19 -136 144 -36 65 -51 103 -47 117 8 25 25 15 25 -16 0 -29 64 -105 138
-162 42 -33 63 -43 92 -43 51 0 80 25 149 129 93 140 98 153 91 279 -1 34 -19
42 -40 17 -10 -12 -10 -15 4 -15 22 0 21 -42 -1 -63 -43 -38 -101 -28 -90 14
6 24 105 109 126 109 16 0 14 45 -2 59 -11 8 -18 2 -36 -29 -12 -21 -31 -42
-42 -45 -30 -10 -34 0 -10 24 24 24 28 82 7 100 -10 9 -19 1 -43 -38z m-392
-88 c12 -32 12 -90 -1 -98 -5 -3 -7 -19 -3 -35 5 -26 2 -30 -15 -30 -19 0 -21
4 -15 33 3 17 10 40 14 49 10 19 2 48 -13 48 -5 0 -7 9 -3 19 3 11 1 22 -5 26
-6 3 -8 10 -5 15 9 15 36 -1 46 -27z m395 -38 c-4 -14 -11 -25 -16 -25 -13 0
-13 16 1 42 14 26 23 16 15 -17z m-92 -180 c-4 -10 0 -12 17 -8 16 4 20 2 17
-8 -7 -21 -54 -24 -62 -3 -7 18 11 47 25 39 4 -3 6 -12 3 -20z m96 -10 c0 -28
-36 -53 -52 -37 -7 7 -3 12 12 17 15 5 20 13 17 26 -3 12 0 19 9 19 8 0 14
-10 14 -25z m-33 -65 c20 0 24 -4 21 -22 -3 -21 -8 -23 -57 -20 -48 3 -53 1
-41 -13 7 -8 21 -15 31 -15 23 0 25 -16 3 -24 -20 -8 -72 23 -80 47 -3 10 0
24 6 32 12 14 55 24 78 18 8 -1 25 -3 39 -3z m-271 -355 c-13 -35 -22 -10 -23
63 l-1 77 15 -63 c8 -34 12 -69 9 -77z m89 -26 c4 -11 4 -23 0 -27 -7 -7 -25
17 -25 36 0 20 18 14 25 -9z"></path>
<path class="node" id="node27" d="M1221 2494 c0 -11 3 -14 6 -6 3 7 2 16 -1 19 -3 4 -6 -2 -5 -13z"></path>
<path class="node" id="node28" d="M1229 2370 c-15 -30 -29 -84 -33 -119 -4 -36 -14 -74 -22 -85 -20
-29 -17 -42 5 -22 11 10 22 28 25 42 6 21 26 35 26 17 0 -20 -56 -95 -107
-143 -73 -69 -97 -116 -91 -181 4 -40 3 -47 -8 -38 -7 6 -15 32 -17 57 -3 39
-4 36 -5 -19 -2 -70 7 -89 45 -89 20 0 22 3 13 19 -28 53 -3 151 53 209 35 37
87 68 87 53 0 -6 -12 -17 -27 -25 -37 -19 -79 -64 -92 -99 -14 -36 -14 -98 -1
-132 12 -31 34 -23 24 8 -18 57 17 146 71 181 42 28 38 13 -10 -39 -39 -41
-45 -54 -45 -91 l0 -44 37 20 c21 11 48 20 60 20 14 0 34 16 56 43 49 61 51
66 33 86 -9 10 -20 38 -25 62 -9 44 -9 44 -10 9 -2 -45 -23 -101 -52 -145 -33
-48 -36 -25 -4 33 19 34 28 67 32 117 2 39 13 90 23 115 13 32 17 59 13 88 -6
46 -12 45 -37 -3 -21 -39 -21 -9 0 40 8 20 14 53 12 73 l-4 37 -25 -55z m17
-204 c-6 -19 -13 -33 -17 -31 -3 3 -1 20 5 39 6 19 13 33 17 31 3 -3 1 -20 -5
-39z"></path>
<path class="node" id="node29" d="M1825 2340 c-3 -5 -1 -10 4 -10 6 0 11 5 11 10 0 6 -2 10 -4 10 -3 0
-8 -4 -11 -10z"></path>
<path class="node" id="node30" d="M1292 2198 c-14 -14 -16 -62 -2 -53 6 3 10 15 10 26 0 10 5 19 10 19
6 0 10 5 10 10 0 14 -13 13 -28 -2z"></path>
<path class="node" id="node31" d="M1804 2068 c-5 -18 1 -28 32 -54 46 -39 59 -36 21 4 -15 16 -27 38
-27 50 0 28 -17 28 -26 0z"></path>
<path class="node" id="node32" d="M2340 2048 c-16 -22 -30 -50 -29 -62 1 -17 2 -16 9 6 4 15 20 43 35
62 15 20 25 36 21 36 -3 0 -19 -19 -36 -42z"></path>
<path class="node" id="node33" d="M1775 2030 c-3 -5 0 -37 7 -70 9 -44 9 -70 1 -98 -5 -20 -12 -44 -14
-52 -8 -31 26 -13 48 25 30 53 29 106 -3 161 -28 47 -30 49 -39 34z"></path>
<path class="node" id="node34" d="M2658 2025 c5 -11 12 -27 15 -35 5 -13 6 -13 6 1 1 8 -6 24 -15 35
-15 19 -15 19 -6 -1z"></path>
<path class="node" id="node35" d="M2510 1981 c-15 -28 -15 -28 43 -56 76 -35 87 -31 42 16 -55 56 -72
64 -85 40z"></path>
<path class="node" id="node36" d="M1710 1956 c-18 -19 -42 -36 -54 -38 -14 -2 -22 -11 -23 -28 -2 -21
6 -29 51 -52 60 -30 69 -27 81 29 7 35 -3 123 -14 123 -4 0 -22 -16 -41 -34z"></path>
<path class="node" id="node37" d="M2405 1956 c-23 -17 -24 -69 -2 -94 10 -10 17 -34 18 -53 0 -19 4
-43 9 -54 6 -15 9 -7 9 30 1 28 4 60 7 73 5 19 2 22 -22 23 l-29 1 30 9 c28 8
55 33 55 51 0 5 -11 1 -25 -8 -24 -16 -51 -11 -39 7 3 6 16 14 28 19 21 9 21
9 0 9 -11 1 -29 -5 -39 -13z"></path>
<path class="node" id="node38" d="M2683 1925 c0 -27 2 -38 4 -22 2 15 2 37 0 50 -2 12 -4 0 -4 -28z"></path>
<path class="node" id="node39" d="M2495 1910 c-6 -10 21 -24 70 -36 27 -7 56 -34 36 -34 -6 0 -28 7
-48 15 -19 8 -44 15 -54 15 -24 0 -43 -45 -33 -80 l7 -25 6 30 c5 25 11 31 39
33 33 3 92 -16 92 -30 0 -5 12 -8 26 -8 24 0 26 3 20 31 -3 17 -6 35 -6 39 0
5 -22 16 -50 25 -27 9 -52 21 -55 26 -8 12 -42 12 -50 -1z"></path>
<path class="node" id="node40" d="M1170 1815 c7 -8 20 -15 29 -15 26 0 109 -47 190 -108 93 -69 186
-122 215 -122 12 0 31 7 43 15 36 25 56 131 32 165 -9 12 -10 12 -5 -4 12 -34
-13 -87 -48 -101 -47 -20 -104 -5 -191 51 -138 88 -149 94 -210 116 -62 22
-71 22 -55 3z"></path>
<path class="node" id="node41" d="M1680 1806 c0 -2 7 -17 15 -32 29 -57 16 -151 -27 -195 -25 -25 -36
-29 -68 -25 -52 6 -109 36 -210 111 -116 85 -128 92 -191 113 -60 19 -79 19
-79 -4 0 -11 -17 -13 -84 -11 -85 2 -85 2 -121 -33 -45 -43 -69 -89 -83 -155
-10 -50 -8 -327 2 -344 3 -4 19 -11 34 -14 16 -3 42 -17 58 -30 32 -27 168
-57 184 -41 4 5 15 41 23 80 8 38 26 89 40 112 15 22 30 59 33 82 5 29 11 40
20 36 8 -3 14 -1 14 4 0 6 -4 10 -10 10 -5 0 -10 14 -10 30 0 19 5 30 14 30
19 0 25 -75 10 -125 -7 -22 -13 -32 -13 -22 -1 9 -6 17 -12 17 -5 0 -7 -5 -4
-10 4 -6 2 -16 -3 -23 -5 -7 -9 -19 -9 -27 -1 -8 -4 -24 -8 -35 -4 -11 7 -1
25 23 34 45 50 53 50 23 0 -25 -29 -92 -30 -68 0 15 -5 13 -25 -11 -14 -17
-25 -38 -25 -48 1 -18 1 -18 14 -1 19 24 24 22 40 -17 8 -19 24 -41 35 -48 25
-15 27 -28 5 -28 -15 0 -16 -8 -11 -60 8 -74 -5 -79 -57 -18 -51 59 -45 23 8
-45 35 -45 44 -66 50 -111 4 -36 18 -75 41 -115 38 -64 44 -106 20 -150 -13
-27 -12 -31 17 -70 32 -44 40 -45 98 -16 31 16 118 105 160 163 30 42 50 54
50 30 0 -19 -59 -118 -68 -115 -5 1 -43 -30 -86 -69 l-77 -70 38 -26 c46 -32
91 -42 125 -29 27 10 84 86 94 126 3 13 12 29 20 36 12 9 14 4 14 -31 0 -31
-4 -43 -17 -47 -20 -6 -85 -98 -76 -107 4 -3 32 -6 64 -6 53 0 59 3 79 30 19
26 26 30 54 24 28 -5 37 -1 64 31 37 41 41 83 15 135 -13 28 -14 41 -5 75 8
32 8 58 0 103 -11 59 -10 64 20 130 46 100 41 161 -10 115 -10 -9 -21 -14 -24
-11 -3 3 31 41 76 84 117 115 128 180 51 300 -29 44 -39 70 -39 102 -1 23 3
42 8 42 12 0 22 -34 14 -53 -4 -10 8 -38 30 -71 46 -69 58 -101 58 -153 0 -46
4 -49 43 -31 21 10 25 16 20 37 -3 13 -17 37 -30 53 -13 16 -27 45 -31 64 -5
26 -16 42 -45 61 -22 14 -39 31 -39 37 0 6 4 4 10 -4 17 -27 29 30 19 91 -20
130 -57 163 -190 171 -55 3 -86 11 -111 26 -34 21 -48 26 -48 18z m-472 -96
c23 -17 42 -34 42 -40 0 -11 -110 51 -110 63 0 15 29 6 68 -23z m642 -150 c0
-16 -75 -93 -112 -114 -28 -16 -22 -8 32 51 64 70 80 83 80 63z m-700 -198 c0
-13 -47 -73 -69 -89 -25 -17 -27 -33 -6 -33 8 0 15 -7 15 -15 0 -20 -13 -19
-41 5 l-24 19 32 26 c17 14 41 41 53 60 20 32 40 46 40 27z m314 -302 c56 -9
78 -8 123 5 30 9 58 14 60 11 18 -18 -73 -152 -162 -242 -54 -54 -75 -65 -75
-41 0 19 29 57 44 57 23 0 136 143 124 156 -2 2 -26 -8 -52 -22 -26 -14 -66
-26 -89 -27 -41 -2 -41 -2 -74 61 -18 35 -31 68 -28 72 3 5 18 2 33 -5 15 -8
58 -19 96 -25z m366 -86 c13 -39 6 -109 -15 -161 -8 -18 -12 -50 -9 -70 l5
-38 -17 32 c-16 30 -16 36 -1 84 19 57 23 154 7 164 -15 9 -12 25 4 25 8 0 20
-16 26 -36z"></path>
<path class="node" id="node42" d="M2500 1790 c0 -17 3 -19 19 -10 11 5 32 10 48 11 l28 1 -25 8 c-47
15 -70 12 -70 -10z"></path>
<path class="node" id="node43" d="M328 1523 c-30 -32 -78 -110 -78 -128 0 -3 9 -5 20 -5 13 0 24 -10
30 -25 14 -37 35 -31 71 23 41 60 99 122 116 122 20 0 15 17 -9 34 -12 9 -43
16 -68 16 -40 0 -51 -5 -82 -37z"></path>
<path class="node" id="node44" d="M1231 1424 c0 -11 3 -14 6 -6 3 7 2 16 -1 19 -3 4 -6 -2 -5 -13z"></path>
<path class="node" id="node45" d="M570 1390 c-20 -20 -29 -66 -10 -55 6 3 10 14 10 25 0 20 22 32 45
24 8 -4 15 -2 15 4 0 8 -22 22 -36 22 -2 0 -13 -9 -24 -20z"></path>
<path class="node" id="node46" d="M2339 1378 c-13 -17 -47 -59 -77 -92 -58 -65 -112 -150 -112 -177 0
-9 -7 -22 -15 -29 -18 -15 -18 -12 -4 45 13 52 5 95 -17 95 -17 0 -110 -84
-126 -113 -7 -14 -7 -17 1 -13 6 4 20 1 32 -7 22 -16 12 -31 -11 -16 -25 15
-30 11 -30 -23 0 -41 35 -91 107 -154 109 -94 90 -92 170 -16 104 99 213 279
228 377 6 37 4 42 -20 55 -15 8 -44 34 -65 58 l-38 43 -23 -33z m-104 -488 c6
-1 -1 -5 -15 -9 -31 -10 -90 -3 -90 10 0 8 63 7 105 -1z"></path>
<path class="node" id="node47" d="M632 1353 c-7 -13 -22 -23 -33 -23 -11 0 -17 -4 -14 -10 9 -15 55
-12 61 4 3 8 4 23 2 33 -3 16 -5 16 -16 -4z"></path>
<path class="node" id="node48" d="M470 1300 c-6 -11 -22 -55 -36 -97 -20 -63 -23 -79 -12 -88 7 -5 13
-21 13 -35 0 -21 4 -25 28 -23 20 1 27 -3 27 -16 0 -10 12 -27 28 -37 15 -9
32 -24 38 -33 15 -20 39 -2 49 36 3 14 22 44 41 67 30 35 32 42 20 54 -19 19
-55 10 -95 -24 -17 -14 -38 -24 -47 -22 -17 3 57 61 95 73 26 8 27 27 3 48
-27 25 -35 22 -81 -28 -38 -42 -61 -56 -61 -37 0 4 25 31 55 61 51 49 54 55
38 67 -34 26 -51 16 -80 -45 -15 -33 -34 -60 -40 -60 -21 -1 -15 15 26 83 22
35 37 67 34 70 -12 12 -33 5 -43 -14z"></path>
<path class="node" id="node49" d="M621 1291 c-31 -6 -33 -7 -17 -20 9 -8 23 -29 31 -48 16 -38 31 -42
40 -13 7 22 -2 78 -13 83 -4 2 -22 1 -41 -2z"></path>
<path class="node" id="node50" d="M896 1101 c-116 -77 -220 -338 -158 -394 59 -53 163 17 232 157 38
75 42 171 10 224 -23 37 -43 40 -84 13z"></path>
<path class="node" id="node51" d="M1037 1083 c5 -16 8 -48 7 -73 l-1 -45 23 50 c34 71 32 95 -6 95 -28
0 -30 -2 -23 -27z"></path>
<path class="node" id="node52" d="M1300 571 c0 -8 -7 -22 -16 -32 -26 -29 -10 -63 64 -137 89 -91 157
-123 272 -129 70 -4 96 -1 150 17 82 28 142 63 176 103 22 26 25 37 20 70 -10
60 -16 63 -40 21 -18 -33 -33 -43 -106 -71 -93 -37 -157 -41 -250 -19 -97 23
-194 89 -255 171 -10 14 -14 16 -15 6z"></path>
</g>
</svg>